<svg width="45" height="114" viewBox="0 0 45 114" fill="none" xmlns="http://www.w3.org/2000/svg">
<path d="M21.2733 112.061C21.2749 112.89 21.9478 113.56 22.7762 113.558C23.6046 113.557 24.2749 112.884 24.2733 112.055L21.2733 112.061ZM21.0584 0.372731L21.2733 112.061L24.2733 112.055L24.0584 0.366959L21.0584 0.372731Z" fill="#081DC3"/>
<path d="M21.5626 111.704C21.277 112.482 21.6757 113.344 22.4533 113.63C23.2309 113.915 24.0929 113.517 24.3786 112.739L21.5626 111.704ZM24.3786 112.739C26.633 106.603 28.9029 102.509 31.8969 99.0744C34.9076 95.6208 38.7177 92.7552 44.1985 89.1583L42.5525 86.6502C37.0268 90.2765 32.9285 93.3256 29.6355 97.103C26.3257 100.9 23.8964 105.352 21.5626 111.704L24.3786 112.739Z" fill="#081DC3"/>
<path d="M22.7417 112.221C19.4694 102.406 15.1347 97.0936 2.33689 87.9035" stroke="#081DC3" stroke-width="3" stroke-linecap="round"/>
</svg>
