<svg width="781" height="579" viewBox="0 0 781 579" fill="none" xmlns="http://www.w3.org/2000/svg">
<mask id="path-1-outside-1_113_2" maskUnits="userSpaceOnUse" x="112" y="116" width="500" height="463" fill="black">
<rect fill="white" x="112" y="116" width="500" height="463"/>
<path d="M113 332C113 212.707 209.707 116 329 116H396C515.293 116 612 212.707 612 332V579H113V332Z"/>
</mask>
<path d="M113 332C113 212.707 209.707 116 329 116H396C515.293 116 612 212.707 612 332V579H113V332Z" fill="#081DC3"/>
<path d="M113 116H612H113ZM612 579H113H612ZM112 579V333C112 213.154 209.154 116 329 116C210.259 116 114 212.706 114 332V579H112ZM612 116V579V116Z" fill="#081DC3" mask="url(#path-1-outside-1_113_2)"/>
<path d="M330 195C330 159.101 359.101 130 395 130C430.899 130 460 159.101 460 195V328H330V195Z" fill="#F3F1EA"/>
<rect x="111" y="336" width="47" height="243" fill="#F3F1EA"/>
<rect x="158" y="376" width="47" height="202" fill="#F3F1EA"/>
<rect x="205" y="416" width="47" height="163" fill="#F3F1EA"/>
<rect x="252" y="456" width="46" height="123" fill="#F3F1EA"/>
<rect x="190" y="416" width="33" height="162" fill="#F3F1EA"/>
<rect x="140" y="376" width="33" height="202" fill="#F3F1EA"/>
<rect x="298" y="496" width="47" height="83" fill="#F3F1EA"/>
<rect x="345" y="536" width="47" height="43" fill="#F3F1EA"/>
<rect x="322" y="536" width="47" height="43" fill="#F3F1EA"/>
<path d="M135 479C135 454.147 155.147 434 180 434C204.853 434 225 454.147 225 479V579H135V479Z" fill="#081DC3"/>
<rect x="330" y="257" width="32" height="71" fill="#081DC3"/>
<rect x="316" y="258" width="32" height="71" fill="#081DC3"/>
<rect x="362" y="277" width="33" height="60" fill="#081DC3"/>
<rect x="342" y="277" width="33" height="60" fill="#081DC3"/>
<rect x="395" y="292" width="32" height="45" fill="#081DC3"/>
<rect x="376" y="292" width="32" height="45" fill="#081DC3"/>
<rect x="395" y="354" width="32" height="104" fill="#F3F1EA"/>
<rect x="364" y="372" width="31" height="107" fill="#F3F1EA"/>
<rect x="331" y="394" width="33" height="106" fill="#F3F1EA"/>
<rect x="298" y="415" width="33" height="107" fill="#F3F1EA"/>
<rect x="239" y="456" width="33" height="123" fill="#F3F1EA"/>
<rect x="279" y="456" width="33" height="123" fill="#F3F1EA"/>
<rect x="315" y="415" width="33" height="85" fill="#F3F1EA"/>
<rect x="351" y="394" width="33" height="85" fill="#F3F1EA"/>
<rect x="381" y="372" width="33" height="86" fill="#F3F1EA"/>
<rect x="417" y="354" width="33" height="82" fill="#F3F1EA"/>
<rect x="427" y="333" width="33" height="103" fill="#F3F1EA"/>
<rect x="427" y="306" width="33" height="31" fill="#081DC3"/>
<rect x="442" y="306" width="33" height="31" fill="#081DC3"/>
<rect x="411" y="306" width="33" height="31" fill="#081DC3"/>
<path fill-rule="evenodd" clip-rule="evenodd" d="M171.4 449.004C162.955 457.134 160.516 470.163 166.26 481.05C172.004 491.937 184.135 497.279 195.613 494.897C193.828 496.616 191.774 498.116 189.472 499.331C176.284 506.289 159.951 501.238 152.993 488.049C146.035 474.861 151.086 458.528 164.274 451.57C166.576 450.356 168.973 449.507 171.4 449.004Z" fill="#F3F1EA"/>
<path d="M191.89 454.257L193.776 466.251L206.706 468L193.776 469.749L191.89 481.743L190.005 469.749L177.075 468L190.005 466.251L191.89 454.257Z" fill="#F3F1EA"/>
<path d="M185.441 461.441L192.413 466.519L199.786 460.903L194.17 468.276L199.247 475.247L192.276 470.17L184.903 475.786L190.519 468.413L185.441 461.441Z" fill="#F3F1EA"/>
<path fill-rule="evenodd" clip-rule="evenodd" d="M350 283H330V309H350V283ZM330 337V312H350V337H330ZM353 337V312H371.805C371.831 315.012 372 317.5 372 317.5C372 317.5 372.301 321.702 373.526 326.736C374.321 330.001 374.4 331.671 374.488 333.538C374.535 334.542 374.586 335.603 374.751 337H353ZM369.683 290.973C365.656 286.215 359.687 283.151 353 283.005V309H371.834C371.866 308.002 371.921 307.014 372.011 306.101C372.313 303.04 371.622 300.072 370.85 296.752C370.432 294.953 369.989 293.051 369.667 290.975L369.683 290.973Z" fill="#F3F1EA"/>
<path d="M502.592 386.589C516.007 404.554 509.006 410.98 512.107 422.774C515.208 434.568 540.523 418.455 556.036 435.582C571.549 452.709 583.622 422.597 591.535 426.248C595.697 428.168 602.939 439.87 600.295 447.443C597.651 455.016 575.849 469.069 580.26 475.924C589.568 490.384 580.404 505.117 579.251 519.462" stroke="#F3F1EA" stroke-width="10" stroke-linecap="round"/>
<path d="M499.288 381.002C501.437 383.441 503.109 386.008 501.579 387.356C500.784 388.057 500.079 390.356 497.167 388.247C494.256 386.138 494.611 386.528 493.579 385.356C491.429 382.917 491.096 380.373 492.625 379.025C494.155 377.677 497.138 378.562 499.288 381.002Z" fill="#F3F1EA"/>
<path d="M506.603 380.427C507.079 385.356 506.996 386.113 505.079 386.356C503.161 386.6 500.033 384.263 499.659 381.308C499.284 378.353 500.535 375.761 502.452 375.517C504.37 375.274 506.228 377.472 506.603 380.427Z" fill="#F3F1EA"/>
<path d="M489.982 370.681C489.245 368.551 492.315 366.325 493.959 367.867C495.844 369.637 497.676 371.383 499.028 372.73C502.887 376.577 505.327 376.31 505.371 377.842C505.384 378.314 505.043 378.708 504.65 378.97L495.917 384.791C495.268 385.224 494.483 385.151 494.122 384.46C493.533 383.335 492.64 381.043 491.631 376.435C491.206 374.491 490.623 372.534 489.982 370.681Z" fill="#F3F1EA"/>
<path d="M505.735 392.282L508.307 393.789L505.438 395.248L505.735 392.282Z" fill="#081DC3"/>
<path d="M508.009 396.755L505.438 395.248L508.307 393.789L508.009 396.755Z" fill="#081DC3"/>
<path d="M510.115 403.479L512.157 405.887L508.971 406.422L510.115 403.479Z" fill="#081DC3"/>
<path d="M511.013 408.775L508.971 406.367L512.157 405.832L511.013 408.775Z" fill="#081DC3"/>
<path d="M508.897 420.509L511.763 423.538L508.613 424.669L508.897 420.509Z" fill="#081DC3"/>
<path d="M511.479 427.699L508.613 424.669L511.763 423.539L511.479 427.699Z" fill="#081DC3"/>
<path d="M530.347 428.869L534.22 427.76L533.939 430.694L530.347 428.869Z" fill="#081DC3"/>
<path d="M537.811 429.585L533.939 430.694L534.22 427.76L537.811 429.585Z" fill="#081DC3"/>
<path d="M561.074 441.595L565.919 441.063L565.939 444.179L561.074 441.595Z" fill="#081DC3"/>
<path d="M571.574 442.005L565.939 444.179L565.919 441.063L571.574 442.005Z" fill="#081DC3"/>
<path d="M594.641 432.37L598.088 435.156L595.61 436.694L594.641 432.37Z" fill="#081DC3"/>
<path d="M599.056 439.48L595.61 436.694L598.088 435.156L599.056 439.48Z" fill="#081DC3"/>
<path d="M577.672 471.897L578.867 474.34L576.342 474.269L577.672 471.897Z" fill="#081DC3"/>
<path d="M577.537 476.712L576.342 474.269L578.867 474.34L577.537 476.712Z" fill="#081DC3"/>
<path d="M244.978 237.16C240.903 256.314 248.805 258.852 250.656 269.341C252.507 279.829 226.538 276.3 220.492 295.555C214.447 314.811 193.865 295.338 188.923 301.126C186.323 304.17 184.855 316.099 189.72 321.14C194.586 326.181 217.016 329.359 216.021 336.409C213.924 351.281 226.577 359.617 232.735 370.575" stroke="#F3F1EA" stroke-width="10" stroke-linecap="round"/>
<path d="M245.557 231.521C244.743 234.242 244.356 236.889 246.062 237.399C246.949 237.664 248.348 239.231 249.887 236.493C251.426 233.756 251.286 234.195 251.677 232.889C252.49 230.168 251.825 228.028 250.119 227.518C248.413 227.008 246.37 228.8 245.557 231.521Z" fill="#F3F1EA"/>
<path d="M239.544 233.739C240.968 237.823 241.31 238.393 242.92 237.885C244.53 237.377 246.157 234.38 245.375 231.899C244.592 229.419 242.652 227.82 241.042 228.327C239.432 228.835 238.762 231.258 239.544 233.739Z" fill="#F3F1EA"/>
<path d="M249.335 221.423C249.05 219.187 245.262 218.454 244.422 220.546C243.783 222.14 243.19 223.651 242.74 224.865C241.124 229.221 239.148 229.972 239.544 231.152C239.694 231.6 240.186 231.81 240.653 231.884L249.455 233.27C250.226 233.392 250.901 232.995 250.925 232.215C250.961 231.066 250.804 228.937 249.961 225.101C249.696 223.893 249.491 222.652 249.335 221.423Z" fill="#F3F1EA"/>
<path d="M244.565 242.826L243.076 244.961L245.885 245.069L244.565 242.826Z" fill="#081DC3"/>
<path d="M244.396 247.204L245.885 245.069L243.076 244.961L244.396 247.204Z" fill="#081DC3"/>
<path d="M245.184 253.308L244.444 255.964L247.166 255.224L245.184 253.308Z" fill="#081DC3"/>
<path d="M246.407 257.836L247.147 255.18L244.424 255.921L246.407 257.836Z" fill="#081DC3"/>
<path d="M252.374 266.371L251.208 269.821L254.12 269.567L252.374 266.371Z" fill="#081DC3"/>
<path d="M252.954 273.017L254.12 269.567L251.208 269.821L252.954 273.017Z" fill="#081DC3"/>
<path d="M238.415 280.842L234.938 281.378L236.233 283.602L238.415 280.842Z" fill="#081DC3"/>
<path d="M232.756 284.138L236.233 283.602L234.938 281.378L232.756 284.138Z" fill="#081DC3"/>
<path d="M218.694 302.167L214.656 303.515L215.779 305.994L218.694 302.167Z" fill="#081DC3"/>
<path d="M210.515 306.329L215.779 305.994L214.656 303.515L210.515 306.329Z" fill="#081DC3"/>
<path d="M188.696 307.117L186.98 310.587L189.508 310.902L188.696 307.117Z" fill="#081DC3"/>
<path d="M187.793 314.371L189.508 310.902L186.98 310.587L187.793 314.371Z" fill="#081DC3"/>
<path d="M216.603 332.269L216.548 334.643L218.525 333.664L216.603 332.269Z" fill="#081DC3"/>
<path d="M218.47 336.038L218.525 333.664L216.548 334.643L218.47 336.038Z" fill="#081DC3"/>
<ellipse cx="414.63" cy="232.296" rx="10.6667" ry="8.2963" fill="#081DC3"/>
<ellipse cx="428.852" cy="240" rx="11.8519" ry="7.7037" fill="#081DC3"/>
<ellipse cx="408.111" cy="241.185" rx="7.7037" ry="6.51852" fill="#081DC3"/>
<ellipse cx="399.222" cy="245.333" rx="14.2222" ry="8.2963" fill="#081DC3"/>
<ellipse cx="425.296" cy="246.519" rx="23.7037" ry="7.11111" fill="#081DC3"/>
<ellipse cx="428.259" cy="252.444" rx="11.2593" ry="3.55556" fill="#081DC3"/>
<path d="M366.011 159.548C366.182 158.414 367.818 158.414 367.989 159.548L369.676 170.723C369.816 171.649 371.038 171.892 371.522 171.09L377.357 161.412C377.95 160.429 379.46 161.055 379.184 162.168L376.467 173.139C376.242 174.048 377.277 174.74 378.031 174.184L387.126 167.475C388.05 166.794 389.206 167.95 388.525 168.873L381.816 177.969C381.26 178.723 381.952 179.758 382.861 179.533L393.832 176.816C394.945 176.54 395.571 178.05 394.588 178.643L384.91 184.478C384.108 184.962 384.351 186.184 385.277 186.324L396.452 188.011C397.586 188.182 397.586 189.818 396.452 189.989L385.277 191.676C384.351 191.816 384.108 193.038 384.91 193.522L394.588 199.357C395.571 199.95 394.945 201.46 393.832 201.184L382.861 198.467C381.952 198.242 381.26 199.277 381.816 200.031L388.525 209.126C389.206 210.05 388.05 211.206 387.126 210.525L378.031 203.816C377.277 203.26 376.242 203.952 376.467 204.861L379.184 215.832C379.46 216.945 377.95 217.571 377.357 216.588L371.522 206.91C371.038 206.108 369.816 206.351 369.676 207.277L367.989 218.452C367.818 219.586 366.182 219.586 366.011 218.452L364.324 207.277C364.184 206.351 362.962 206.108 362.478 206.91L356.643 216.588C356.05 217.571 354.54 216.945 354.816 215.832L357.533 204.861C357.758 203.952 356.723 203.26 355.969 203.816L346.874 210.525C345.95 211.206 344.794 210.05 345.475 209.126L352.184 200.031C352.74 199.277 352.048 198.242 351.139 198.467L340.168 201.184C339.055 201.46 338.429 199.95 339.412 199.357L349.09 193.522C349.892 193.038 349.649 191.816 348.723 191.676L337.548 189.989C336.414 189.818 336.414 188.182 337.548 188.011L348.723 186.324C349.649 186.184 349.892 184.962 349.09 184.478L339.412 178.643C338.429 178.05 339.055 176.54 340.168 176.816L351.139 179.533C352.048 179.758 352.74 178.723 352.184 177.969L345.475 168.874C344.794 167.95 345.95 166.794 346.873 167.475L355.969 174.184C356.723 174.74 357.758 174.048 357.533 173.139L354.816 162.168C354.54 161.055 356.05 160.429 356.643 161.412L362.478 171.09C362.962 171.892 364.184 171.649 364.324 170.723L366.011 159.548Z" fill="#081DC3"/>
<path d="M90.7893 360.198L87.8809 359.896L89.3371 345.867L31.8539 339.901L30.3977 353.929L27.4894 353.627L31.0232 319.582L33.9316 319.884L32.4754 333.913L89.9586 339.88L91.4147 325.851L94.3231 326.153L90.7893 360.198Z" fill="#081DC3"/>
<path d="M40.2671 276.228L42.0379 275.657C42.4818 277.034 43.111 278.494 43.9254 280.036C44.7555 281.523 45.6394 282.399 46.5771 282.665C46.9679 281.286 47.6548 280.229 48.6377 279.494C49.6362 278.705 50.8801 278.521 52.3694 278.943C53.8036 279.35 54.8369 280.119 55.4693 281.252C56.0466 282.369 56.1554 283.562 55.7958 284.83C55.4519 286.044 54.7609 287.01 53.7229 287.729C52.6453 288.377 51.224 288.451 49.4588 287.951C47.804 287.482 46.357 286.595 45.1178 285.29C43.8391 283.915 42.8004 282.428 42.0016 280.831C41.1633 279.164 40.5851 277.629 40.2671 276.228Z" fill="#081DC3"/>
<path d="M109.328 271.342L106.694 270.073L108.337 266.664L73.1615 249.718L71.1459 253.902L69.5964 253.156L70.6737 247.947L70.0748 243.84L70.784 242.368L76.2849 245.018L76.3969 244.786C75.408 243.8 74.5799 242.415 73.9125 240.63C73.2701 238.793 73.3719 236.996 74.2179 235.24C74.8898 233.846 75.9021 232.933 77.2548 232.503C78.6325 232.021 80.2501 232.164 82.1077 232.932L82.2196 232.699C81.2556 231.662 80.4399 230.251 79.7726 228.466C79.1053 226.681 79.1946 224.91 80.0407 223.154C80.812 221.552 81.9516 220.574 83.4593 220.219C84.9154 219.838 86.6506 220.133 88.665 221.104L122.445 237.377L124.274 233.581L126.909 234.85L122.654 243.683L86.4713 226.252C84.5085 225.306 83.1166 225.686 82.2954 227.39C81.8475 228.32 81.7976 229.282 82.1456 230.277C82.4668 231.196 83.031 232.072 83.8382 232.906C84.5938 233.716 85.3857 234.384 86.214 234.91L116.585 249.541L118.414 245.745L121.049 247.014L116.831 255.769L80.6486 238.338C78.6858 237.393 77.2565 237.85 76.3607 239.709C75.9377 240.587 75.9126 241.498 76.2855 242.441C76.6067 243.36 77.1709 244.236 77.9782 245.07C78.7586 245.828 79.563 246.47 80.3913 246.997L110.763 261.628L112.592 257.832L115.226 259.101L109.328 271.342Z" fill="#081DC3"/>
<path d="M156.574 193.078L154.526 190.992L157.778 187.798L125.851 134.054L128.305 131.644L181.462 164.539L185.39 160.682L187.438 162.769L172.957 176.989L170.909 174.903L177.106 168.817L159.266 157.77L149.142 167.712L159.925 185.689L164.22 181.471L166.269 183.558L156.574 193.078ZM133.625 141.848L147.704 165.267L156.847 156.288L133.625 141.848Z" fill="#081DC3"/>
<path d="M192.187 159.067L190.528 156.659L203.91 147.434L181.749 115.288L171.694 122.22L170.523 120.52L179.943 112.669L181.838 108.751L183.537 107.579L208.724 144.114L222.107 134.889L223.766 137.296L192.187 159.067ZM177.224 103.574C176.139 104.323 174.958 104.58 173.682 104.345C172.406 104.111 171.394 103.451 170.646 102.365C169.897 101.279 169.64 100.098 169.875 98.8225C170.109 97.5466 170.769 96.5344 171.855 95.786C172.941 95.0375 174.122 94.7805 175.397 95.0151C176.673 95.2497 177.686 95.9098 178.434 96.9955C179.182 98.0812 179.439 99.262 179.205 100.538C178.97 101.814 178.31 102.826 177.224 103.574Z" fill="#081DC3"/>
<path d="M252.435 124.206C249.83 125.403 247.393 125.797 245.123 125.389C242.905 124.957 240.959 124.085 239.283 122.773C237.583 121.409 236.27 119.994 235.343 118.527L234.718 118.814L239.495 129.207L236.994 130.356L228.59 112.071L232.654 110.203L233.085 111.141C233.324 111.662 233.745 112.509 234.348 113.684C235.003 114.834 235.848 116.055 236.883 117.346C237.918 118.637 239.111 119.792 240.463 120.811C241.867 121.806 243.45 122.436 245.211 122.699C246.973 122.962 248.896 122.614 250.979 121.657C253.324 120.579 254.819 119.166 255.467 117.417C256.166 115.644 256.073 113.794 255.187 111.867C254.325 109.991 253.088 108.604 251.476 107.704C249.84 106.753 248.001 106.115 245.959 105.792C243.893 105.416 241.735 105.114 239.485 104.886C237.287 104.635 235.144 104.295 233.054 103.867C230.941 103.387 229.042 102.619 227.358 101.564C225.649 100.456 224.305 98.8337 223.323 96.6979C221.982 93.7806 221.844 90.9413 222.91 88.18C223.975 85.4187 226.149 83.2838 229.431 81.7753C231.827 80.6739 233.944 80.2689 235.782 80.5601C237.595 80.7992 239.128 81.3883 240.38 82.3273C241.66 83.1902 242.658 84.0568 243.373 84.9268L243.998 84.6395L240.73 77.5286L243.231 76.3793L250.198 91.5388L246.916 93.0472L246.808 92.8128C246.186 91.4584 245.371 90.0976 244.364 88.7305C243.357 87.3634 242.152 86.1823 240.748 85.187C239.396 84.1677 237.877 83.5406 236.192 83.3057C234.559 83.0468 232.778 83.3604 230.851 84.2463C228.454 85.3477 227.101 86.727 226.79 88.3843C226.479 90.0416 226.635 91.5475 227.257 92.902C228.023 94.569 229.201 95.8262 230.789 96.6736C232.353 97.469 234.168 98.0545 236.234 98.4302C238.276 98.7537 240.396 99.0414 242.594 99.2932C244.844 99.521 247.037 99.9009 249.175 100.433C251.288 100.913 253.211 101.733 254.943 102.893C256.651 104.001 258.008 105.648 259.014 107.836C259.972 109.92 260.313 112.035 260.037 114.181C259.813 116.303 259.043 118.266 257.727 120.07C256.439 121.797 254.675 123.176 252.435 124.206Z" fill="#081DC3"/>
<path d="M287.248 111.501C284.199 112.305 281.546 112.027 279.289 110.666C277.073 109.235 275.614 107.189 274.912 104.528C274.253 102.033 274.322 99.8213 275.117 97.8918C275.953 95.8922 277.167 94.0893 278.759 92.4831C280.351 90.8769 281.952 89.4167 283.562 88.1023L291.012 81.9554L288.883 73.8897C288.166 71.1734 286.744 69.2659 284.615 68.1673C282.487 67.0688 280.12 66.8633 277.515 67.551C275.131 68.1802 273.317 69.2817 272.072 70.8555C270.827 72.4294 270.046 73.8511 269.729 75.1208C271.355 76.1147 272.576 76.9192 273.39 77.5343C274.26 78.1348 274.834 78.9617 275.112 80.015C275.361 80.9573 275.263 81.9321 274.817 82.9392C274.427 83.9317 273.594 84.5962 272.319 84.9327C271.099 85.2546 270.019 85.0949 269.079 84.4536C268.18 83.7422 267.562 82.7491 267.226 81.4741C266.889 80.1991 266.828 78.7327 267.043 77.075C267.298 75.3473 267.873 73.5945 268.768 71.8166C269.718 70.0242 271.074 68.4211 272.835 67.0073C274.582 65.5382 276.814 64.4451 279.53 63.7282C282.468 62.9527 284.95 62.9202 286.976 63.6307C289.057 64.3266 290.699 65.4941 291.903 67.1333C293.147 68.7023 294.025 70.457 294.537 72.3972L301.649 99.3385C302.263 101.667 303.374 102.619 304.982 102.194C306.035 101.916 306.757 101.281 307.147 100.289C307.523 99.2407 307.712 98.2718 307.714 97.3817L309.343 97.4856C309.469 98.6382 309.388 99.9047 309.1 101.285C308.798 102.61 308.23 103.828 307.396 104.937C306.603 105.977 305.458 106.694 303.961 107.089C302.298 107.528 300.738 107.347 299.282 106.545C297.88 105.729 296.872 104.157 296.258 101.829C296.078 102.944 295.628 104.159 294.908 105.476C294.188 106.793 293.203 108.002 291.951 109.103C290.7 110.204 289.132 111.003 287.248 111.501ZM279.479 101.277C280.05 103.439 281.205 105.12 282.945 106.321C284.671 107.467 286.642 107.747 288.86 107.161C290.301 106.781 291.495 106.14 292.443 105.237C293.432 104.265 294.169 103.24 294.656 102.163C295.198 101.071 295.498 100.073 295.555 99.1679L291.539 83.9511L284.671 89.9443C283.557 90.8906 282.52 91.9055 281.561 92.9888C280.587 94.0167 279.858 95.1875 279.375 96.501C278.947 97.7999 278.982 99.3918 279.479 101.277Z" fill="#081DC3"/>
<path d="M319.43 102.826L319.181 99.9126L335.376 98.5276L332.049 59.6256L319.881 60.6661L319.705 58.6096L331.778 56.4552L335.365 53.9906L337.421 53.8147L341.202 98.0294L357.397 96.6444L357.646 99.5578L319.43 102.826ZM333.922 47.2089C332.608 47.3212 331.455 46.9595 330.463 46.1237C329.47 45.2878 328.918 44.213 328.806 42.8991C328.693 41.5852 329.055 40.4322 329.891 39.4401C330.727 38.4479 331.802 37.8956 333.116 37.7833C334.429 37.6709 335.582 38.0327 336.575 38.8685C337.567 39.7043 338.119 40.7792 338.231 42.0931C338.344 43.4069 337.982 44.5599 337.146 45.5521C336.31 46.5443 335.235 47.0965 333.922 47.2089Z" fill="#081DC3"/>
<path d="M379.525 101.555C376.384 101.279 373.982 100.119 372.32 98.0742C370.72 95.9771 370.04 93.5578 370.28 90.8163C370.505 88.2462 371.319 86.188 372.72 84.6419C374.184 83.0436 375.937 81.7585 377.979 80.7864C380.021 79.8144 382.022 78.9827 383.982 78.2912L393.074 75.0307L393.802 66.7206C394.048 63.922 393.355 61.6455 391.725 59.8911C390.094 58.1367 387.937 57.1418 385.253 56.9064C382.797 56.6911 380.717 57.113 379.012 58.1722C377.308 59.2314 376.092 60.3046 375.363 61.3918C376.557 62.8777 377.432 64.048 377.991 64.9027C378.606 65.7624 378.866 66.7348 378.771 67.82C378.686 68.791 378.263 69.6747 377.502 70.4714C376.799 71.273 375.791 71.6162 374.477 71.5011C373.22 71.3909 372.258 70.8749 371.591 69.9531C370.986 68.9792 370.741 67.8354 370.856 66.5218C370.971 65.2082 371.41 63.8078 372.174 62.3208C372.999 60.7817 374.134 59.3273 375.578 57.9575C377.079 56.5927 378.897 55.5435 381.034 54.8099C383.175 54.0193 385.645 53.7466 388.443 53.992C391.471 54.2574 393.817 55.0674 395.482 56.422C397.205 57.7816 398.354 59.4364 398.932 61.3862C399.571 63.284 399.803 65.2324 399.628 67.2314L397.194 94.9889C396.984 97.3877 397.707 98.6597 399.363 98.8049C400.448 98.9001 401.343 98.5468 402.046 97.7452C402.755 96.8864 403.26 96.0387 403.564 95.202L405.061 95.8513C404.79 96.9785 404.285 98.1429 403.546 99.3443C402.813 100.489 401.866 101.442 400.706 102.203C399.607 102.913 398.287 103.2 396.745 103.065C395.032 102.914 393.626 102.215 392.526 100.968C391.484 99.7256 391.068 97.905 391.279 95.5062C390.731 96.4942 389.896 97.4857 388.773 98.4808C387.65 99.4758 386.313 100.279 384.763 100.892C383.213 101.504 381.467 101.725 379.525 101.555ZM375.679 89.304C375.483 91.5315 376.001 93.5049 377.231 95.2243C378.467 96.8866 380.227 97.8178 382.512 98.0181C383.997 98.1483 385.338 97.9494 386.535 97.4213C387.795 96.841 388.836 96.1266 389.658 95.2778C390.538 94.4341 391.158 93.5964 391.519 92.7647L392.893 77.0869L384.402 80.3999C383.033 80.913 381.714 81.5167 380.444 82.2112C379.18 82.8485 378.098 83.7033 377.198 84.7754C376.355 85.8526 375.849 87.3622 375.679 89.304Z" fill="#081DC3"/>
<path d="M411.663 104.005L412.415 101.179L419.396 103.038L433.867 48.6872L425.39 46.4303L425.921 44.4358L434.685 45.6123L438.895 44.5082L440.89 45.0393L434.672 68.3918L434.921 68.4581C435.63 67.5789 436.588 66.766 437.796 66.0195C439.018 65.2176 440.445 64.6483 442.077 64.3116C443.709 63.9749 445.467 64.0573 447.351 64.5588C450.066 65.2816 451.97 66.7082 453.064 68.8387C454.228 70.9286 454.375 73.6079 453.505 76.8767L444.743 109.786L451.724 111.645L450.972 114.47L438.34 111.107L447.721 75.8708C448.901 71.4385 447.552 68.7061 443.674 67.6736C442.123 67.2606 440.669 67.2593 439.314 67.6698C438.014 68.095 436.857 68.7658 435.841 69.6821C434.896 70.5577 434.153 71.4573 433.61 72.3808L425.047 104.542L429.95 105.848L429.928 105.931L433.252 106.816L432.522 109.558L411.663 104.005Z" fill="#081DC3"/>
<path d="M498.066 135.905L499.731 133.501L503.478 136.096L550.278 94.6532L553.106 96.6117L530.768 154.997L535.293 158.13L533.628 160.534L516.943 148.979L518.608 146.575L525.748 151.52L533.252 131.924L521.587 123.845L505.952 137.81L510.901 141.238L509.237 143.641L498.066 135.905ZM544.081 103.752L523.719 121.975L534.254 129.27L544.081 103.752Z" fill="#081DC3"/>
<path d="M538.156 164.504L540.209 162.422L551.781 173.836L591.276 133.791L582.581 125.216L584.03 123.746L593.51 131.525L597.714 132.652L599.183 134.101L555.945 177.942L567.518 189.356L565.464 191.438L538.156 164.504Z" fill="#081DC3"/>
<path d="M571.017 197.878L573.398 196.18L582.836 209.413L614.623 186.741L607.532 176.799L609.212 175.6L617.214 184.893L621.162 186.726L622.36 188.406L586.232 214.174L595.67 227.407L593.29 229.105L571.017 197.878ZM626.263 182.03C625.498 180.957 625.222 179.78 625.436 178.501C625.65 177.221 626.294 176.199 627.368 175.433C628.441 174.667 629.618 174.391 630.897 174.606C632.177 174.82 633.199 175.464 633.965 176.537C634.731 177.611 635.007 178.787 634.792 180.067C634.578 181.346 633.934 182.369 632.861 183.135C631.787 183.9 630.611 184.176 629.331 183.962C628.052 183.748 627.029 183.104 626.263 182.03Z" fill="#081DC3"/>
<path d="M603.195 249.96C601.907 247.272 601.683 244.614 602.522 241.987C603.386 239.411 605.081 236.978 607.607 234.687C610.158 232.448 613.269 230.448 616.94 228.69C621.386 226.559 625.68 225.17 629.819 224.521C633.959 223.873 637.596 224.101 640.732 225.205C643.919 226.285 646.268 228.402 647.78 231.556C648.647 233.365 648.977 235.05 648.771 236.611C648.642 238.199 648.299 239.54 647.742 240.633L662.013 233.796L658.222 225.885L660.084 224.993L664.882 232.421L668.456 234.904L669.348 236.766L615.213 262.703L617.851 268.209L615.99 269.101L612.343 264.078L608.769 261.594L607.877 259.733L614.47 256.574L614.358 256.341C613.254 256.425 611.975 256.276 610.519 255.892C609.064 255.509 607.665 254.844 606.322 253.898C605.03 252.928 603.988 251.615 603.195 249.96ZM607.156 250.066C607.998 251.824 609.131 253.061 610.555 253.777C612.055 254.52 613.601 254.893 615.19 254.894C616.78 254.895 618.195 254.662 619.433 254.196L638.202 245.203C642.08 243.345 644.461 241.283 645.346 239.015C646.23 236.748 646.152 234.528 645.112 232.357C643.948 229.927 642.114 228.421 639.61 227.841C637.159 227.235 634.175 227.775 630.659 229.459L612.278 238.266C609.124 239.777 607.246 241.63 606.645 243.826C606.044 246.021 606.214 248.101 607.156 250.066Z" fill="#081DC3"/>
<path d="M617.271 278.935L620.085 278.144L624.484 293.792L662.071 283.225L658.766 271.469L660.753 270.91L665.135 282.364L668.228 285.425L668.787 287.412L626.067 299.421L630.466 315.069L627.651 315.86L617.271 278.935ZM674.619 282.735C674.262 281.466 674.401 280.265 675.036 279.134C675.671 278.003 676.623 277.258 677.892 276.902C679.162 276.545 680.362 276.684 681.494 277.319C682.625 277.953 683.369 278.906 683.726 280.175C684.083 281.444 683.944 282.645 683.309 283.776C682.674 284.908 681.722 285.652 680.452 286.009C679.183 286.365 677.983 286.226 676.851 285.592C675.72 284.957 674.976 284.005 674.619 282.735Z" fill="#081DC3"/>
<path d="M630.368 343.372C630.078 340.52 630.482 337.972 631.58 335.729C632.734 333.479 634.38 331.525 636.516 329.867C638.716 328.261 641.207 326.97 643.989 325.996C646.771 325.022 649.646 324.384 652.612 324.082C655.635 323.775 658.579 323.822 661.443 324.222C664.365 324.617 667.036 325.382 669.457 326.519C671.94 327.708 673.945 329.291 675.471 331.268C677.055 333.239 677.992 335.651 678.281 338.503C678.571 341.355 678.139 343.905 676.985 346.155C675.887 348.399 674.239 350.324 672.039 351.931C669.903 353.588 667.443 354.905 664.661 355.879C661.935 356.847 659.061 357.485 656.038 357.793C653.072 358.094 650.128 358.047 647.207 357.653C644.285 357.258 641.582 356.467 639.099 355.278C636.678 354.141 634.676 352.587 633.093 350.616C631.566 348.639 630.658 346.224 630.368 343.372ZM633.106 343.094C633.471 346.687 635.23 349.246 638.381 350.77C641.59 352.288 645.847 352.777 651.151 352.238L659.707 351.369C665.012 350.83 669.054 349.497 671.835 347.37C674.673 345.237 675.909 342.374 675.544 338.781C675.178 335.187 673.391 332.632 670.183 331.114C667.031 329.59 662.803 329.097 657.498 329.637L648.943 330.506C643.638 331.045 639.567 332.381 636.729 334.514C633.949 336.64 632.741 339.501 633.106 343.094Z" fill="#081DC3"/>
</svg>
