<svg width="62" height="62" viewBox="0 0 62 62" fill="none" xmlns="http://www.w3.org/2000/svg">
<path d="M30.0112 1.54805C30.1825 0.413798 31.8175 0.413794 31.9888 1.54804L33.6763 12.7235C33.8162 13.6494 35.038 13.8924 35.5215 13.0905L41.3573 3.41155C41.9496 2.42918 43.4601 3.05488 43.1843 4.16833L40.4667 15.1389C40.2416 16.0478 41.2774 16.7399 42.031 16.1841L51.1265 9.47514C52.0496 8.79422 53.2058 9.95035 52.5249 10.8735L45.8159 19.969C45.2601 20.7226 45.9522 21.7584 46.8611 21.5333L57.8317 18.8157C58.9451 18.5399 59.5708 20.0504 58.5885 20.6427L48.9095 26.4785C48.1076 26.962 48.3506 28.1838 49.2765 28.3237L60.452 30.0112C61.5862 30.1825 61.5862 31.8175 60.452 31.9888L49.2765 33.6763C48.3506 33.8162 48.1076 35.038 48.9095 35.5215L58.5885 41.3573C59.5708 41.9496 58.9451 43.4601 57.8317 43.1843L46.8611 40.4667C45.9522 40.2416 45.2601 41.2774 45.8159 42.031L52.5249 51.1265C53.2058 52.0496 52.0496 53.2058 51.1265 52.5249L42.031 45.8159C41.2774 45.2601 40.2416 45.9522 40.4667 46.8611L43.1843 57.8317C43.4601 58.9451 41.9496 59.5708 41.3573 58.5885L35.5215 48.9095C35.038 48.1076 33.8162 48.3506 33.6763 49.2765L31.9888 60.452C31.8175 61.5862 30.1825 61.5862 30.0112 60.452L28.3237 49.2765C28.1838 48.3506 26.962 48.1076 26.4785 48.9095L20.6427 58.5885C20.0504 59.5708 18.5399 58.9451 18.8157 57.8317L21.5333 46.8611C21.7584 45.9522 20.7226 45.2601 19.969 45.8159L10.8735 52.5249C9.95035 53.2058 8.79421 52.0496 9.47514 51.1265L16.1841 42.031C16.7399 41.2774 16.0478 40.2416 15.1389 40.4667L4.16833 43.1843C3.05488 43.4601 2.42918 41.9496 3.41154 41.3573L13.0905 35.5215C13.8924 35.038 13.6494 33.8162 12.7235 33.6763L1.54805 31.9888C0.413798 31.8175 0.413794 30.1825 1.54804 30.0112L12.7235 28.3237C13.6494 28.1838 13.8924 26.962 13.0905 26.4785L3.41155 20.6427C2.42918 20.0504 3.05488 18.5399 4.16833 18.8157L15.1389 21.5333C16.0478 21.7584 16.7399 20.7226 16.1841 19.969L9.47514 10.8735C8.79422 9.95035 9.95035 8.79421 10.8735 9.47514L19.969 16.1841C20.7226 16.7399 21.7584 16.0478 21.5333 15.1389L18.8157 4.16833C18.5399 3.05488 20.0504 2.42918 20.6427 3.41154L26.4785 13.0905C26.962 13.8924 28.1838 13.6494 28.3237 12.7235L30.0112 1.54805Z" fill="#081DC3"/>
</svg>
