<svg width="130" height="207" viewBox="0 0 130 207" fill="none" xmlns="http://www.w3.org/2000/svg">
<path d="M0 65C0 29.1015 29.1015 0 65 0V0C100.899 0 130 29.1015 130 65V198H0V65Z" fill="#081DC3"/>
<rect y="127" width="32" height="80" fill="#F3F1EA"/>
<rect x="32" y="147" width="33" height="60" fill="#F3F1EA"/>
<rect x="16" y="147" width="33" height="60" fill="#F3F1EA"/>
<rect x="65" y="162" width="32" height="45" fill="#F3F1EA"/>
<rect x="49" y="162" width="32" height="45" fill="#F3F1EA"/>
<rect x="97" y="176" width="33" height="31" fill="#F3F1EA"/>
<rect x="78" y="176" width="33" height="31" fill="#F3F1EA"/>
<path fill-rule="evenodd" clip-rule="evenodd" d="M20 153H0V179H20V153ZM0 207V182H20V207H0ZM23 207V182H41.8049C41.8309 185.012 42 187.5 42 187.5C42 187.5 42.3011 191.702 43.5262 196.736C44.3208 200.001 44.3997 201.671 44.488 203.538C44.5355 204.542 44.5857 205.603 44.7512 207H23ZM39.6827 160.973C35.6556 156.215 29.6872 153.151 23 153.005V179H41.8344C41.8655 178.002 41.9212 177.014 42.0113 176.101C42.3131 173.04 41.6224 170.072 40.85 166.752C40.4315 164.953 39.989 163.051 39.6673 160.975L39.6827 160.973Z" fill="#081DC3"/>
<ellipse cx="84.6296" cy="102.296" rx="10.6667" ry="8.2963" fill="#F3F1EA"/>
<ellipse cx="98.8519" cy="110" rx="11.8519" ry="7.7037" fill="#F3F1EA"/>
<ellipse cx="78.1111" cy="111.185" rx="7.7037" ry="6.51852" fill="#F3F1EA"/>
<ellipse cx="69.2222" cy="115.333" rx="14.2222" ry="8.2963" fill="#F3F1EA"/>
<ellipse cx="95.2963" cy="116.519" rx="23.7037" ry="7.11111" fill="#F3F1EA"/>
<ellipse cx="98.2593" cy="122.444" rx="11.2593" ry="3.55556" fill="#F3F1EA"/>
<path d="M36.0112 29.548C36.1825 28.4138 37.8175 28.4138 37.9888 29.548L39.6763 40.7235C39.8162 41.6494 41.038 41.8924 41.5215 41.0905L47.3573 31.4115C47.9496 30.4292 49.4601 31.0549 49.1843 32.1683L46.4667 43.1389C46.2416 44.0478 47.2774 44.7399 48.031 44.1841L57.1265 37.4751C58.0496 36.7942 59.2058 37.9504 58.5249 38.8735L51.8159 47.969C51.2601 48.7226 51.9522 49.7584 52.8611 49.5333L63.8317 46.8157C64.9451 46.5399 65.5708 48.0504 64.5885 48.6427L54.9095 54.4785C54.1076 54.962 54.3506 56.1838 55.2765 56.3237L66.452 58.0112C67.5862 58.1825 67.5862 59.8175 66.452 59.9888L55.2765 61.6763C54.3506 61.8162 54.1076 63.038 54.9095 63.5215L64.5885 69.3573C65.5708 69.9496 64.9451 71.4601 63.8317 71.1843L52.8611 68.4667C51.9522 68.2416 51.2601 69.2774 51.8159 70.031L58.5249 79.1265C59.2058 80.0496 58.0496 81.2058 57.1265 80.5249L48.031 73.8159C47.2774 73.2601 46.2416 73.9522 46.4667 74.8611L49.1843 85.8317C49.4601 86.9451 47.9496 87.5708 47.3573 86.5885L41.5215 76.9095C41.038 76.1076 39.8162 76.3506 39.6763 77.2765L37.9888 88.452C37.8175 89.5862 36.1825 89.5862 36.0112 88.452L34.3237 77.2765C34.1838 76.3506 32.962 76.1076 32.4785 76.9095L26.6427 86.5885C26.0504 87.5708 24.5399 86.9451 24.8157 85.8317L27.5333 74.8611C27.7584 73.9522 26.7226 73.2601 25.969 73.8159L16.8735 80.5249C15.9504 81.2058 14.7942 80.0496 15.4751 79.1265L22.1841 70.031C22.7399 69.2774 22.0478 68.2416 21.1389 68.4667L10.1683 71.1843C9.05488 71.4601 8.42918 69.9496 9.41154 69.3573L19.0905 63.5215C19.8924 63.038 19.6494 61.8162 18.7235 61.6763L7.54805 59.9888C6.4138 59.8175 6.41379 58.1825 7.54804 58.0112L18.7235 56.3237C19.6494 56.1838 19.8924 54.962 19.0905 54.4785L9.41155 48.6427C8.42918 48.0504 9.05488 46.5399 10.1683 46.8157L21.1389 49.5333C22.0478 49.7584 22.7399 48.7226 22.1841 47.969L15.4751 38.8735C14.7942 37.9504 15.9504 36.7942 16.8735 37.4751L25.969 44.1841C26.7226 44.7399 27.7584 44.0478 27.5333 43.1389L24.8157 32.1683C24.5399 31.0549 26.0504 30.4292 26.6427 31.4115L32.4785 41.0905C32.962 41.8924 34.1838 41.6494 34.3237 40.7235L36.0112 29.548Z" fill="#F3F1EA"/>
</svg>
