<svg width="187" height="187" viewBox="0 0 187 187" fill="none" xmlns="http://www.w3.org/2000/svg">
<path d="M50.0855 169.161L49.2203 168.661L65.5322 140.406C65.819 140.577 66.1074 140.744 66.3976 140.909L50.0855 169.161Z" fill="#001ECB"/>
<path d="M71.9119 143.646L59.4338 173.771L60.3577 174.154L60.3587 174.153L72.8357 144.031C72.5263 143.906 72.2184 143.777 71.9119 143.646Z" fill="#001ECB"/>
<path d="M78.6615 146.017L70.2248 177.503L71.1907 177.762L71.1949 177.763L79.6315 146.277C79.307 146.193 78.9837 146.106 78.6615 146.017Z" fill="#001ECB"/>
<path d="M85.6687 147.476L81.4139 179.795L81.4157 179.796L82.4053 179.926L82.4071 179.926L86.6621 147.607C86.33 147.566 85.9989 147.523 85.6687 147.476Z" fill="#001ECB"/>
<path d="M92.8037 148.005V180.607H93.8037L93.8076 180.607V148.005C93.6407 148.007 93.4737 148.008 93.3064 148.008C93.1387 148.008 92.9711 148.007 92.8037 148.005Z" fill="#001ECB"/>
<path d="M99.9516 147.606L104.206 179.926L105.198 179.795L100.943 147.477C100.614 147.523 100.283 147.566 99.9516 147.606Z" fill="#001ECB"/>
<path d="M106.982 146.277L115.418 177.761L116.384 177.502L107.948 146.018C107.627 146.107 107.305 146.193 106.982 146.277Z" fill="#001ECB"/>
<path d="M113.777 144.031L126.254 174.152L127.178 173.77L114.701 143.646C114.394 143.777 114.087 143.906 113.777 144.031Z" fill="#001ECB"/>
<path d="M120.215 140.91L136.525 169.16L137.391 168.66L121.079 140.407C120.793 140.577 120.504 140.745 120.215 140.91Z" fill="#001ECB"/>
<path d="M126.187 136.971L146.06 162.87L146.853 162.261L126.978 136.359C126.716 136.566 126.452 136.769 126.187 136.971Z" fill="#001ECB"/>
<path d="M131.587 132.292L154.685 155.389L155.392 154.682L132.293 131.583C132.06 131.821 131.824 132.058 131.587 132.292Z" fill="#001ECB"/>
<path d="M136.334 126.949L162.265 146.846L162.874 146.053L136.941 126.154C136.741 126.421 136.539 126.686 136.334 126.949Z" fill="#001ECB"/>
<path d="M140.341 121.038L168.661 137.389L169.161 136.523V136.522L140.839 120.17C140.676 120.461 140.51 120.75 140.341 121.038Z" fill="#001ECB"/>
<path d="M143.54 114.653L173.773 127.176L174.155 126.252L174.155 126.25L143.92 113.726C143.796 114.037 143.669 114.346 143.54 114.653Z" fill="#001ECB"/>
<path d="M145.87 107.905L177.506 116.382L177.765 115.416V115.415L146.125 106.937C146.043 107.261 145.958 107.584 145.87 107.905Z" fill="#001ECB"/>
<path d="M147.291 100.915L179.799 105.194L179.93 104.203L147.416 99.9218C147.377 100.254 147.335 100.585 147.291 100.915Z" fill="#001ECB"/>
<path d="M147.787 93.803H180.608V92.803L147.783 92.8027C147.786 93.0437 147.787 93.2849 147.787 93.5266C147.787 93.6188 147.787 93.7109 147.787 93.803Z" fill="#001ECB"/>
<path d="M147.363 86.6904L179.926 82.4034L179.795 81.4117L147.229 85.6991C147.277 86.0286 147.321 86.3591 147.363 86.6904Z" fill="#001ECB"/>
<path d="M146.017 79.6977L177.765 71.1907L177.506 70.2248L145.755 78.7326C145.845 79.0531 145.932 79.3748 146.017 79.6977Z" fill="#001ECB"/>
<path d="M143.765 72.944L174.155 60.356L173.773 59.4321L143.379 72.0217C143.51 72.3277 143.639 72.6351 143.765 72.944Z" fill="#001ECB"/>
<path d="M140.648 66.5463L169.161 50.0844L168.661 49.2184L140.144 65.6816C140.315 65.9682 140.483 66.2564 140.648 66.5463Z" fill="#001ECB"/>
<path d="M136.727 60.6149L162.872 40.5529L162.263 39.7596L136.114 59.8232C136.321 60.0851 136.525 60.3491 136.727 60.6149Z" fill="#001ECB"/>
<path d="M132.07 55.2439L155.39 31.9241L154.683 31.217L131.361 54.5388C131.599 54.7717 131.836 55.0067 132.07 55.2439Z" fill="#001ECB"/>
<path d="M126.76 50.5232L146.847 24.3456L146.054 23.7369L125.966 49.9159C126.233 50.116 126.497 50.3184 126.76 50.5232Z" fill="#001ECB"/>
<path d="M120.886 46.5321L137.39 17.9469L136.524 17.4469L120.019 46.0326C120.31 46.1965 120.599 46.3631 120.886 46.5321Z" fill="#001ECB"/>
<path d="M114.543 43.3399L127.178 12.8371L126.254 12.4544L126.253 12.455L113.618 42.958C113.928 43.0825 114.236 43.2098 114.543 43.3399Z" fill="#001ECB"/>
<path d="M107.839 41.0053L116.387 9.10513L115.421 8.84631L115.416 8.84546L106.868 40.747C107.193 40.8302 107.517 40.9163 107.839 41.0053Z" fill="#001ECB"/>
<path d="M100.886 39.5685L105.198 6.81268L104.205 6.6818L99.8921 39.4396C100.224 39.4796 100.555 39.5226 100.886 39.5685Z" fill="#001ECB"/>
<path d="M93.8077 39.0478V5.99999H92.8077L92.8037 6.00002V39.0478C92.9711 39.0463 93.1387 39.0456 93.3064 39.0456C93.4737 39.0456 93.6408 39.0463 93.8077 39.0478Z" fill="#001ECB"/>
<path d="M86.72 39.4396L82.4073 6.68141L81.4159 6.81193L85.7281 39.5684C86.0578 39.5225 86.3885 39.4796 86.72 39.4396Z" fill="#001ECB"/>
<path d="M79.7411 40.7479L71.1927 8.84508L70.2268 9.10364L78.7747 41.0051C79.0956 40.9164 79.4178 40.8307 79.7411 40.7479Z" fill="#001ECB"/>
<path d="M72.9941 42.9581L60.3587 12.4535L59.4349 12.8362L72.0698 43.3397C72.3765 43.2098 72.6846 43.0826 72.9941 42.9581Z" fill="#001ECB"/>
<path d="M66.5925 46.0334L50.0875 17.4459L49.2214 17.9459L65.7259 46.5325C66.0131 46.3636 66.302 46.1972 66.5925 46.0334Z" fill="#001ECB"/>
<path d="M60.6474 49.9155L40.5589 23.7356L39.7655 24.3443L59.853 50.5229C60.1159 50.318 60.3807 50.1156 60.6474 49.9155Z" fill="#001ECB"/>
<path d="M55.2504 54.5404L31.9257 31.2157L31.2186 31.9228L54.5409 55.2458C54.7753 55.0085 55.0118 54.7733 55.2504 54.5404Z" fill="#001ECB"/>
<path d="M50.4983 59.8236L24.3488 39.7584L23.74 40.5517L49.8861 60.6148C50.0878 60.3492 50.2918 60.0854 50.4983 59.8236Z" fill="#001ECB"/>
<path d="M60.4266 136.971L40.553 162.871L39.7596 162.262L59.6352 136.36C59.897 136.566 60.1608 136.77 60.4266 136.971Z" fill="#001ECB"/>
<path d="M55.0237 132.29L31.9238 155.39L31.2167 154.683L54.3186 131.581C54.5515 131.82 54.7865 132.056 55.0237 132.29Z" fill="#001ECB"/>
<path d="M50.2785 126.949L24.3468 146.847L24.3448 146.847L23.7361 146.054L49.6711 126.153C49.8712 126.42 50.0737 126.686 50.2785 126.949Z" fill="#001ECB"/>
<path d="M17.9469 49.218L46.4673 65.6842C46.2966 65.9708 46.1284 66.259 45.9629 66.5489L17.4469 50.0852L17.9469 49.218Z" fill="#001ECB"/>
<path d="M43.2343 72.0211L12.8394 59.4312L12.4567 60.355L12.4567 60.3565L42.8472 72.9446C42.9735 72.6354 43.1025 72.3275 43.2343 72.0211Z" fill="#001ECB"/>
<path d="M40.8584 78.7309L9.10757 70.2233L8.84875 71.1893V71.1905L40.5961 79.6971C40.6806 79.3739 40.7681 79.0518 40.8584 78.7309Z" fill="#001ECB"/>
<path d="M39.3835 85.699L6.81244 81.4109L6.68191 82.4024L39.2501 86.6908C39.2916 86.3593 39.3361 86.0287 39.3835 85.699Z" fill="#001ECB"/>
<path d="M38.8301 92.8027H6.00122V93.8027L38.8261 93.803C38.8256 93.7109 38.8254 93.6188 38.8254 93.5266C38.8254 93.2849 38.827 93.0436 38.8301 92.8027Z" fill="#001ECB"/>
<path d="M39.1968 99.9219L6.68191 104.203L6.81244 105.194L39.322 100.914C39.2773 100.584 39.2356 100.254 39.1968 99.9219Z" fill="#001ECB"/>
<path d="M40.4886 106.939L8.84875 115.416L9.10757 116.382L40.743 107.906C40.6553 107.585 40.5705 107.262 40.4886 106.939Z" fill="#001ECB"/>
<path d="M42.6931 113.727L12.4567 126.251L12.8394 127.175L43.0727 114.652C42.9434 114.345 42.8169 114.037 42.6931 113.727Z" fill="#001ECB"/>
<path d="M45.7721 120.167L17.4449 136.522L17.9449 137.388L17.9464 137.387L46.2703 121.035C46.1016 120.748 45.9355 120.458 45.7721 120.167Z" fill="#001ECB"/>
<path d="M87.6955 0.0559398L89.7932 32.0618C89.4598 32.0821 89.1271 32.1049 88.7951 32.1304L86.6971 0.121339L87.6955 0.0559398Z" fill="#001ECB"/>
<path d="M81.8378 33.0645L75.5762 1.5857L74.5929 1.78113L80.8549 33.2625C81.1816 33.1939 81.5092 33.1279 81.8378 33.0645Z" fill="#001ECB"/>
<path d="M74.076 35.0972L63.7524 4.68486L62.8054 5.0063L73.1299 35.4212C73.4441 35.3107 73.7594 35.2027 74.076 35.0972Z" fill="#001ECB"/>
<path d="M66.6548 38.1243L52.4402 9.29983L51.5433 9.74212L65.7589 38.5692C66.0561 38.4186 66.3548 38.2703 66.6548 38.1243Z" fill="#001ECB"/>
<path d="M59.6917 42.0925L41.8251 15.3533L40.9937 15.9089L58.8614 42.6498C59.1365 42.4619 59.4133 42.2761 59.6917 42.0925Z" fill="#001ECB"/>
<path d="M53.3054 46.9262L32.0943 22.7396L31.3424 23.399L52.554 47.5862C52.8027 47.3642 53.0531 47.1442 53.3054 46.9262Z" fill="#001ECB"/>
<path d="M47.5932 52.5467L23.4041 31.3334L22.7448 32.0852L46.9329 53.2984C47.151 53.046 47.3711 52.7954 47.5932 52.5467Z" fill="#001ECB"/>
<path d="M42.6554 58.8555L15.9145 40.9878L15.9126 40.9871L15.357 41.8185L42.0978 59.6862C42.2815 59.4077 42.4673 59.1308 42.6554 58.8555Z" fill="#001ECB"/>
<path d="M38.574 65.7543L9.74604 51.5379L9.30375 52.4348L9.30375 52.4362L38.1286 66.6511C38.2747 66.3508 38.4232 66.0518 38.574 65.7543Z" fill="#001ECB"/>
<path d="M35.4257 73.1261L5.01116 62.8017L4.68972 63.7487L4.68972 63.7501L35.1013 74.0735C35.2069 73.7565 35.3151 73.4407 35.4257 73.1261Z" fill="#001ECB"/>
<path d="M33.2675 80.8495L1.78299 74.5869L1.5879 75.5676L1.58789 75.5694L33.0697 81.8315C33.133 81.5032 33.199 81.1759 33.2675 80.8495Z" fill="#001ECB"/>
<path d="M32.1352 88.7909L0.125962 86.6929L0.0605592 87.6908L0.062585 87.6909L0.0625138 87.692L32.0667 89.7897C32.0869 89.4561 32.1097 89.1231 32.1352 88.7909Z" fill="#001ECB"/>
<path d="M32.0363 96.8175L0.0585938 98.9134L0.123998 99.9118L32.0961 97.8162C32.0736 97.484 32.0536 97.1511 32.0363 96.8175Z" fill="#001ECB"/>
<path d="M32.9714 104.794L1.58792 111.037L1.78301 112.017L33.1603 105.776C33.0948 105.45 33.0318 105.122 32.9714 104.794Z" fill="#001ECB"/>
<path d="M34.9415 112.588L4.68777 122.857L5.00921 123.804L35.2575 113.536C35.1497 113.221 35.0444 112.905 34.9415 112.588Z" fill="#001ECB"/>
<path d="M37.919 120.061L9.30572 134.171L9.748 135.068L38.3567 120.96C38.2084 120.661 38.0625 120.362 37.919 120.061Z" fill="#001ECB"/>
<path d="M41.8494 127.081L15.3531 144.786L15.9086 145.617L15.9113 145.615L15.9125 145.617L42.4019 127.918C42.2155 127.64 42.0314 127.362 41.8494 127.081Z" fill="#001ECB"/>
<path d="M46.667 133.539L22.7428 154.52L23.4022 155.272L47.3219 134.295C47.1016 134.044 46.8833 133.793 46.667 133.539Z" fill="#001ECB"/>
<path d="M52.2851 139.32L31.3366 163.207L32.0884 163.866L53.0326 139.984C52.7816 139.764 52.5324 139.543 52.2851 139.32Z" fill="#001ECB"/>
<path d="M58.6123 144.326L40.9917 170.697L41.8232 171.253L59.4398 144.888C59.1624 144.703 58.8865 144.516 58.6123 144.326Z" fill="#001ECB"/>
<path d="M65.5427 148.468L51.5393 176.864L52.4362 177.306L52.4379 177.306L66.4381 148.917C66.1383 148.77 65.8398 148.62 65.5427 148.468Z" fill="#001ECB"/>
<path d="M72.9659 151.668L62.8054 181.6L62.8071 181.6L63.7524 181.921L63.754 181.922L73.9127 151.995C73.596 151.889 73.2804 151.78 72.9659 151.668Z" fill="#001ECB"/>
<path d="M80.7505 153.863L74.5915 184.826L74.5928 184.826L75.5723 185.021L75.5736 185.021L81.7318 154.062C81.4038 153.998 81.0766 153.932 80.7505 153.863Z" fill="#001ECB"/>
<path d="M88.7618 155.014L86.6991 186.485L86.7015 186.486L87.6969 186.551L87.6994 186.551L89.7619 155.083C89.4278 155.063 89.0944 155.04 88.7618 155.014Z" fill="#001ECB"/>
<path d="M96.8559 155.114L98.9163 186.551L99.9147 186.485L97.8545 155.054C97.5224 155.076 97.1895 155.096 96.8559 155.114Z" fill="#001ECB"/>
<path d="M104.903 154.161L111.041 185.021L112.025 184.825L105.887 153.97C105.56 154.037 105.232 154.1 104.903 154.161Z" fill="#001ECB"/>
<path d="M112.756 152.157L122.86 181.921L123.807 181.599L113.704 151.838C113.389 151.947 113.073 152.053 112.756 152.157Z" fill="#001ECB"/>
<path d="M120.281 149.13L134.176 177.305L135.073 176.863L121.179 148.688C120.881 148.838 120.582 148.985 120.281 149.13Z" fill="#001ECB"/>
<path d="M127.341 145.137L144.791 171.252L145.622 170.696L128.172 144.581C127.897 144.768 127.62 144.954 127.341 145.137Z" fill="#001ECB"/>
<path d="M133.818 140.25L154.528 163.865L155.279 163.205L134.57 139.591C134.321 139.812 134.07 140.032 133.818 140.25Z" fill="#001ECB"/>
<path d="M139.597 134.563L163.211 155.271L163.87 154.519L140.257 133.811C140.039 134.063 139.819 134.314 139.597 134.563Z" fill="#001ECB"/>
<path d="M144.587 128.167L170.7 145.615L170.702 145.616L171.258 144.785L145.142 127.335C144.959 127.614 144.774 127.891 144.587 128.167Z" fill="#001ECB"/>
<path d="M148.693 121.175L176.866 135.069L177.308 134.172L177.308 134.17L149.134 120.277C148.99 120.578 148.842 120.877 148.693 121.175Z" fill="#001ECB"/>
<path d="M151.842 113.702L181.604 123.805L181.926 122.858V122.856L152.162 112.753C152.058 113.07 151.951 113.387 151.842 113.702Z" fill="#001ECB"/>
<path d="M153.975 105.881L184.827 112.018L185.023 111.037V111.035L154.166 104.898C154.105 105.227 154.042 105.554 153.975 105.881Z" fill="#001ECB"/>
<path d="M155.058 97.851L186.492 99.9113L186.557 98.9134L186.555 98.9133L186.555 98.9122L155.119 96.8517C155.101 97.1855 155.081 97.5186 155.058 97.851Z" fill="#001ECB"/>
<path d="M155.088 89.7549L186.553 87.6926L186.488 86.6942L155.019 88.7568C155.045 89.0888 155.068 89.4215 155.088 89.7549Z" fill="#001ECB"/>
<path d="M154.067 81.7262L185.023 75.5687L184.827 74.588L153.868 80.7463C153.937 81.072 154.003 81.3986 154.067 81.7262Z" fill="#001ECB"/>
<path d="M152 73.9075L181.924 63.7499L181.602 62.8029L151.673 72.9624C151.785 73.2763 151.894 73.5913 152 73.9075Z" fill="#001ECB"/>
<path d="M148.923 66.4348L177.31 52.4355L176.868 51.5386L148.474 65.5408C148.626 65.8374 148.775 66.1354 148.923 66.4348Z" fill="#001ECB"/>
<path d="M144.893 59.4353L171.256 41.8203L170.7 40.9888L170.697 40.9906L170.696 40.9888L144.33 58.606C144.52 58.8808 144.707 59.1573 144.893 59.4353Z" fill="#001ECB"/>
<path d="M139.989 53.028L163.868 32.0866L163.209 31.3348L139.325 52.2805C139.548 52.5278 139.77 52.777 139.989 53.028Z" fill="#001ECB"/>
<path d="M134.299 47.3169L155.274 23.4002L154.522 22.7409L133.544 46.6619C133.797 46.8782 134.049 47.0965 134.299 47.3169Z" fill="#001ECB"/>
<path d="M127.922 42.3967L145.62 15.9099L144.789 15.3543L127.088 41.8455C127.367 42.027 127.646 42.2108 127.922 42.3967Z" fill="#001ECB"/>
<path d="M120.963 38.351L135.07 9.74413L134.174 9.30184L134.172 9.30158L120.062 37.9126C120.364 38.0564 120.664 38.2025 120.963 38.351Z" fill="#001ECB"/>
<path d="M113.541 35.2528L123.808 5.00749L123.807 5.0069L122.861 4.68605L122.86 4.68546L112.591 34.9362C112.909 35.0392 113.226 35.1447 113.541 35.2528Z" fill="#001ECB"/>
<path d="M105.782 33.1556L112.022 1.78181L111.04 1.58631L104.798 32.9664C105.127 33.0269 105.455 33.0899 105.782 33.1556Z" fill="#001ECB"/>
<path d="M97.8232 32.0914L99.9186 0.121562L99.9162 0.121311L98.9208 0.0561591L98.9183 0.0559082L96.8225 32.0314C97.1568 32.0488 97.4904 32.0688 97.8232 32.0914Z" fill="#001ECB"/>
</svg>
