<svg width="230" height="230" viewBox="0 0 230 230" fill="none" xmlns="http://www.w3.org/2000/svg">
<circle cx="115.158" cy="114.1" r="111" stroke="#081DC3"/>
<circle cx="115.658" cy="114.6" r="82.5" stroke="#081DC3"/>
<path d="M113.612 30.7335L113.699 29.8196L116.494 30.086L121.323 14.7068L118.241 16.3116L117.945 16.2834L118.079 14.8858L121.588 13.9184L123.11 9.04584L124.911 9.21747L123.407 13.3323L123.756 13.3656C123.912 13.2539 124.163 13.0879 124.509 12.8678C124.875 12.6314 125.301 12.428 125.788 12.2573C126.274 12.0867 126.777 12.0262 127.297 12.0757C128.193 12.1611 128.821 12.5916 129.181 13.3673C129.559 14.1446 129.687 15.1694 129.566 16.4417C129.482 17.3197 129.285 18.2502 128.974 19.2331C128.683 20.1999 128.295 21.1483 127.808 22.0783C127.341 22.9922 126.775 23.8151 126.108 24.5472C125.46 25.281 124.737 25.8449 123.94 26.2391C123.161 26.635 122.323 26.7902 121.427 26.7048C121.051 26.669 120.714 26.6007 120.416 26.5C120.118 26.3993 119.848 26.2921 119.606 26.1786L118.322 30.2602L122.596 30.6675L122.509 31.5814L113.612 30.7335ZM121.671 25.8601C123.66 26.0496 125.095 24.74 125.978 21.931L127.773 16.1894C128.083 15.2064 128.102 14.4398 127.829 13.8894C127.574 13.3407 127.115 13.0348 126.452 12.9716C125.932 12.9221 125.38 13.0231 124.796 13.2748C124.213 13.5086 123.756 13.7543 123.424 14.012L119.948 25.1535C120.061 25.2908 120.264 25.4368 120.557 25.5912C120.869 25.7295 121.241 25.8191 121.671 25.8601Z" fill="#081DC3"/>
<path d="M134.391 28.1528L140.375 17.0784C140.498 16.8519 140.551 16.605 140.536 16.3379C140.538 16.0758 140.366 15.894 140.021 15.7925C139.693 15.6961 139.347 15.7541 138.985 15.9665C138.622 16.1789 138.166 16.4858 137.617 16.8872L136.677 17.596L136.335 17.1298L137.167 16.5018C137.694 16.1126 138.183 15.759 138.633 15.4409C139.088 15.1056 139.532 14.8703 139.966 14.7351C140.422 14.5877 140.9 14.5875 141.401 14.7347C142.109 14.9427 142.502 15.3302 142.579 15.897C142.657 16.4638 142.454 17.089 141.972 17.7728L139.303 21.4914L139.692 21.6055C141.267 19.6294 142.705 18.2135 144.007 17.3578C145.309 16.5021 146.548 16.2468 147.722 16.5919C148.378 16.7847 148.839 17.0985 149.106 17.5332C149.394 17.9557 149.47 18.4 149.333 18.8663C149.216 19.2635 148.974 19.577 148.606 19.8067C148.261 20.0241 147.847 20.0618 147.363 19.9197C146.88 19.7777 146.56 19.5243 146.405 19.1597C146.271 18.7829 146.315 18.3455 146.537 17.8477L146.79 17.2748C146.202 17.1022 145.446 17.2833 144.519 17.8178C143.61 18.3575 142.635 19.1871 141.593 20.3068C140.551 21.4265 139.526 22.7763 138.518 24.3561L135.842 28.579L134.391 28.1528Z" fill="#081DC3"/>
<path d="M153.212 35.1109C152.477 34.7306 151.969 34.2045 151.688 33.5325C151.423 32.8687 151.353 32.1231 151.477 31.2956C151.617 30.4763 151.906 29.643 152.344 28.7955C152.889 27.7402 153.591 26.7756 154.448 25.9016C155.321 25.0359 156.256 24.324 157.254 23.7659C158.276 23.2 159.295 22.8556 160.311 22.7324C161.327 22.6093 162.251 22.7627 163.083 23.1925C163.818 23.5728 164.318 24.0948 164.583 24.7585C164.856 25.4063 164.93 26.1439 164.807 26.9714C164.683 27.799 164.398 28.6445 163.951 29.5079C163.397 30.5792 162.68 31.5557 161.798 32.4374C160.941 33.3114 160.006 34.0233 158.992 34.5731C157.978 35.1229 156.963 35.4594 155.947 35.5826C154.955 35.698 154.044 35.5407 153.212 35.1109ZM153.801 34.4426C154.697 34.9055 155.695 34.8948 156.796 34.4106C157.922 33.9186 159.021 33.0077 160.094 31.6777L161.837 29.5397C162.926 28.218 163.525 27.0588 163.635 26.062C163.77 25.0575 163.389 24.3238 162.494 23.8608C161.614 23.4062 160.62 23.429 159.51 23.9292C158.409 24.4134 157.314 25.3164 156.225 26.6381L154.457 28.7637C153.369 30.0854 152.765 31.2526 152.647 32.2654C152.537 33.2622 152.922 33.9879 153.801 34.4426Z" fill="#081DC3"/>
<path d="M182.678 33.6559C182.409 33.4443 182.25 33.1812 182.2 32.8668C182.15 32.5523 182.231 32.2607 182.442 31.9921C182.732 31.6244 183.136 31.4162 183.656 31.3673C184.187 31.3043 184.636 31.4176 185.004 31.7072C185.287 31.9299 185.446 32.193 185.482 32.4963C185.532 32.8108 185.451 33.1024 185.24 33.371C184.95 33.7387 184.54 33.954 184.009 34.017C183.489 34.0659 183.046 33.9455 182.678 33.6559ZM161.724 45.3336C160.819 44.6207 160.205 43.8733 159.881 43.0914C159.544 42.2984 159.575 41.6473 159.976 41.1383C160.199 40.8555 160.48 40.6875 160.82 40.6344C161.16 40.5812 161.478 40.6716 161.775 40.9055C162.058 41.1283 162.216 41.3787 162.249 41.6568C162.271 41.949 162.24 42.2346 162.158 42.5135C162.079 42.8177 161.983 43.0855 161.869 43.3168L161.566 44.0065C161.615 44.0904 161.706 44.2078 161.839 44.3586C161.986 44.5206 162.166 44.6851 162.378 44.8522C163.085 45.4091 163.775 45.7117 164.447 45.7601C165.133 45.8196 165.788 45.7163 166.41 45.4502C167.021 45.1982 167.585 44.8749 168.102 44.4803C168.622 44.1109 169.08 43.7617 169.477 43.4326L179.015 35.5135L175.006 32.3557L175.407 31.8467L179.803 34.8624L181.26 35.1509L181.769 35.5519L170.898 44.5521C170.501 44.8811 169.987 45.2434 169.354 45.6389C168.736 46.0456 168.025 46.3672 167.22 46.6037C166.415 46.8403 165.548 46.8791 164.619 46.7203C163.679 46.5755 162.714 46.1133 161.724 45.3336Z" fill="#081DC3"/>
<path d="M180.53 55.493C179.717 54.5547 179.428 53.4943 179.666 52.3117C179.928 51.1309 180.678 50.004 181.916 48.9308C182.8 48.1643 183.801 47.5465 184.919 47.0773C186.037 46.6081 187.174 46.3126 188.331 46.1908C189.5 46.0825 190.59 46.1855 191.601 46.4999C192.638 46.8161 193.504 47.3753 194.2 48.1777C194.86 48.9392 195.187 49.728 195.18 50.5442C195.198 51.3621 194.854 52.0777 194.147 52.691C193.467 53.2806 192.72 53.5592 191.905 53.5268C191.103 53.508 190.283 53.2775 189.447 52.8352C188.623 52.4065 187.839 51.8595 187.095 51.1941C186.376 50.5305 185.755 49.8546 185.229 49.1665L183.895 49.8947C182.393 50.7448 181.436 51.6338 181.026 52.5616C180.629 53.4776 180.772 54.33 181.456 55.1187C181.869 55.5947 182.338 55.9151 182.862 56.08C183.398 56.2585 183.928 56.3345 184.453 56.308C185.004 56.2834 185.5 56.2102 185.943 56.0886C186.397 55.9805 186.742 55.8838 186.978 55.7985L188.08 55.3792L188.359 56.0307L187.473 56.3697C187.013 56.5539 186.479 56.7073 185.871 56.8299C185.274 56.9661 184.651 57.0302 184.001 57.0223C183.376 57.0161 182.759 56.8957 182.151 56.661C181.554 56.4399 181.014 56.0506 180.53 55.493ZM186.306 48.5541L185.749 48.859C186.414 49.7357 187.165 50.4781 188.002 51.0864C188.853 51.6828 189.708 52.0371 190.568 52.1493C191.441 52.2497 192.231 51.9933 192.939 51.3801C193.455 50.9319 193.734 50.4286 193.773 49.8699C193.825 49.3249 193.632 48.8008 193.196 48.2977C192.5 47.4953 191.543 47.1338 190.326 47.2131C189.133 47.2941 187.793 47.7411 186.306 48.5541Z" fill="#081DC3"/>
<path d="M190.647 69.0207C190.015 67.9302 189.937 66.8422 190.411 65.7567C190.91 64.6778 191.844 63.7417 193.215 62.9482C194.259 62.3441 195.374 61.9172 196.561 61.6673C197.763 61.4084 198.948 61.336 200.116 61.4501C201.284 61.5642 202.34 61.8788 203.283 62.3938C204.25 62.9154 205.009 63.6514 205.559 64.6017C205.874 65.147 206.077 65.6951 206.167 66.2461C206.282 66.8036 206.272 67.3082 206.139 67.76C206.021 68.2027 205.775 68.5322 205.401 68.7486C205.089 68.9289 204.766 68.981 204.43 68.9047C204.095 68.8284 203.824 68.6111 203.616 68.2527C203.165 67.4738 203.429 66.7077 204.407 65.9543L205.008 65.4822C204.996 65.4264 204.967 65.3395 204.919 65.2214C204.872 65.1034 204.807 64.9742 204.726 64.834C204.176 63.8837 203.26 63.2703 201.977 62.9938C200.718 62.7239 199.282 62.8479 197.668 63.3658L195.048 64.2275C193.412 64.7791 192.309 65.4795 191.74 66.3288C191.187 67.1691 191.162 68.0254 191.667 68.8979C191.992 69.4587 192.396 69.8695 192.88 70.1303C193.372 70.4067 193.879 70.5814 194.4 70.6544C194.945 70.7341 195.446 70.7559 195.904 70.7198C196.361 70.6838 196.714 70.6462 196.961 70.6069L198.122 70.4029L198.274 71.0953L197.34 71.2612C195.721 71.5536 194.334 71.4932 193.18 71.0798C192.05 70.673 191.206 69.9866 190.647 69.0207Z" fill="#081DC3"/>
<path d="M197.894 83.895C197.517 82.8064 197.615 81.9343 198.188 81.2787C198.778 80.6171 199.692 80.205 200.931 80.0425L210.924 78.7808L209.686 75.2091L210.591 75.1814L211.802 78.6766L214.673 78.1391L215.336 80.0525L212.403 80.4114L214.321 85.9476L213.416 85.9753L211.525 80.5157L201.532 81.7773C200.691 81.8783 200.065 82.1332 199.654 82.5422C199.266 82.9624 199.19 83.5126 199.426 84.1929C199.615 84.7372 199.919 85.1748 200.338 85.5057C200.774 85.8307 201.256 86.0926 201.782 86.2914C202.331 86.5012 202.842 86.6859 203.317 86.8454L204.251 87.1504L204.062 87.7588L203.102 87.4627C202.291 87.2104 201.533 86.9489 200.83 86.6783C200.127 86.4076 199.519 86.0561 199.007 85.6238C198.518 85.2026 198.147 84.6263 197.894 83.895Z" fill="#081DC3"/>
<path d="M202.278 100.209C202.09 98.8902 202.184 97.8312 202.56 97.0318C202.937 96.2324 203.481 95.7816 204.194 95.6796C204.639 95.6158 204.987 95.6934 205.237 95.9122C205.504 96.1285 205.663 96.4149 205.714 96.7712C205.77 97.1632 205.714 97.4713 205.546 97.6953C205.378 97.9194 205.158 98.0964 204.886 98.2263C204.634 98.3714 204.395 98.4784 204.168 98.5472L203.049 98.9255C202.973 99.1547 202.981 99.59 203.073 100.231C203.251 101.479 203.66 102.366 204.299 102.892C204.959 103.435 205.671 103.651 206.438 103.541C207.079 103.449 207.605 103.183 208.014 102.743C208.427 102.32 208.782 101.814 209.079 101.226C209.379 100.656 209.696 100.074 210.03 99.4811C210.363 98.8879 210.761 98.3672 211.224 97.919C211.69 97.4887 212.288 97.2213 213.019 97.1167C213.749 97.0121 214.445 97.1125 215.107 97.4178C215.769 97.723 216.332 98.2244 216.796 98.9217C217.277 99.6165 217.595 100.507 217.751 101.594C217.919 102.77 217.843 103.699 217.523 104.382C217.202 105.064 216.757 105.446 216.186 105.528C215.848 105.576 215.548 105.51 215.285 105.329C215.043 105.164 214.897 104.903 214.846 104.547C214.782 104.101 214.914 103.755 215.243 103.508C215.571 103.261 215.924 103.056 216.3 102.893L216.942 102.61C216.967 102.534 216.984 102.395 216.991 102.194C216.999 101.993 216.981 101.741 216.938 101.438C216.782 100.351 216.418 99.585 215.845 99.1396C215.275 98.7121 214.678 98.543 214.054 98.6323C213.484 98.7139 212.992 98.9661 212.58 99.3887C212.188 99.8267 211.835 100.341 211.519 100.932C211.204 101.522 210.869 102.107 210.515 102.685C210.164 103.28 209.747 103.795 209.263 104.228C208.8 104.676 208.212 104.951 207.5 105.053C207.054 105.117 206.559 105.087 206.014 104.965C205.472 104.861 204.939 104.628 204.414 104.267C203.91 103.921 203.464 103.412 203.077 102.74C202.693 102.086 202.426 101.242 202.278 100.209Z" fill="#081DC3"/>
<path d="M211.38 137.059L212.818 135.824L215.334 139.657L215.445 139.656L217.347 135.477L218.939 136.474L216.077 140.031L216.13 140.155L220.672 140.673L220.227 142.509L215.952 140.89L215.848 140.976L216.764 145.448L214.898 145.58L215.115 141.02L215.016 140.969L211.024 143.224L210.311 141.467L214.716 140.257L214.742 140.152L211.38 137.059Z" fill="#081DC3"/>
<path d="M188.694 155.87L189.441 156.403L187.81 158.689L198.698 170.575L198.854 167.104L199.027 166.862L200.169 167.678L199.248 171.199L202.701 174.959L201.65 176.431L198.843 173.067L198.639 173.353C198.658 173.543 198.676 173.843 198.693 174.253C198.714 174.689 198.676 175.16 198.58 175.666C198.484 176.172 198.285 176.638 197.981 177.063C197.458 177.795 196.771 178.123 195.919 178.046C195.057 177.983 194.106 177.581 193.066 176.838C192.348 176.326 191.642 175.689 190.947 174.927C190.256 174.191 189.63 173.379 189.069 172.492C188.512 171.63 188.084 170.728 187.785 169.784C187.475 168.855 187.349 167.947 187.407 167.06C187.455 166.187 187.741 165.385 188.264 164.652C188.483 164.344 188.711 164.087 188.948 163.88C189.184 163.673 189.412 163.493 189.632 163.34L186.743 160.183L184.249 163.677L183.502 163.144L188.694 155.87ZM188.873 165.286C187.712 166.912 188.126 168.811 190.114 170.982L194.183 175.413C194.878 176.174 195.532 176.575 196.145 176.614C196.748 176.669 197.242 176.425 197.629 175.883C197.933 175.458 198.122 174.93 198.197 174.298C198.287 173.676 198.303 173.157 198.247 172.741L190.347 164.149C190.172 164.179 189.944 164.281 189.663 164.457C189.387 164.658 189.124 164.934 188.873 165.286Z" fill="#081DC3"/>
<path d="M180.502 175.158L187.101 185.876C187.236 186.096 187.423 186.266 187.662 186.386C187.888 186.519 188.131 186.461 188.392 186.213C188.639 185.977 188.762 185.649 188.759 185.229C188.757 184.808 188.719 184.26 188.646 183.583L188.502 182.415L189.076 182.352L189.204 183.387C189.278 184.038 189.34 184.638 189.39 185.186C189.453 185.748 189.435 186.251 189.335 186.694C189.235 187.162 188.996 187.577 188.618 187.937C188.084 188.446 187.552 188.593 187.022 188.376C186.493 188.16 186.053 187.672 185.702 186.912L183.815 182.742L183.522 183.022C184.446 185.374 184.953 187.327 185.043 188.883C185.133 190.438 184.735 191.638 183.85 192.483C183.354 192.955 182.852 193.197 182.343 193.21C181.832 193.249 181.41 193.093 181.074 192.741C180.789 192.441 180.638 192.075 180.623 191.642C180.607 191.234 180.782 190.856 181.147 190.508C181.512 190.161 181.891 190.01 182.284 190.058C182.677 190.131 183.034 190.388 183.354 190.828L183.724 191.334C184.167 190.912 184.389 190.166 184.389 189.096C184.376 188.039 184.145 186.78 183.696 185.317C183.248 183.855 182.591 182.293 181.727 180.63L179.407 176.201L180.502 175.158Z" fill="#081DC3"/>
<path d="M165.07 187.993C165.766 187.545 166.475 187.367 167.198 187.458C167.905 187.56 168.587 187.87 169.242 188.39C169.883 188.919 170.461 189.585 170.978 190.388C171.621 191.386 172.107 192.475 172.438 193.654C172.753 194.842 172.904 196.008 172.891 197.151C172.872 198.319 172.663 199.374 172.263 200.317C171.864 201.259 171.27 201.983 170.483 202.49C169.787 202.938 169.085 203.112 168.378 203.01C167.68 202.924 167.004 202.621 166.348 202.101C165.692 201.582 165.101 200.913 164.575 200.096C163.923 199.082 163.434 197.973 163.108 196.769C162.778 195.591 162.627 194.425 162.655 193.272C162.684 192.119 162.898 191.071 163.298 190.129C163.692 189.212 164.282 188.5 165.07 187.993ZM165.356 188.837C164.508 189.382 164.02 190.253 163.891 191.449C163.756 192.67 163.998 194.077 164.617 195.67L165.601 198.247C166.204 199.85 166.911 200.947 167.72 201.539C168.524 202.156 169.35 202.192 170.197 201.647C171.03 201.111 171.506 200.237 171.625 199.026C171.754 197.83 171.517 196.43 170.914 194.828L169.952 192.236C169.348 190.633 168.637 189.529 167.818 188.921C167.009 188.329 166.188 188.301 165.356 188.837Z" fill="#081DC3"/>
<path d="M151.617 214.271C151.934 214.143 152.242 214.137 152.539 214.25C152.837 214.364 153.049 214.579 153.176 214.897C153.35 215.331 153.329 215.786 153.112 216.26C152.902 216.752 152.579 217.084 152.145 217.259C151.811 217.392 151.503 217.399 151.222 217.279C150.925 217.165 150.712 216.95 150.585 216.632C150.411 216.198 150.429 215.735 150.64 215.244C150.857 214.769 151.182 214.445 151.617 214.271ZM151.957 190.284C153.026 189.856 153.98 189.697 154.82 189.807C155.675 189.91 156.224 190.262 156.465 190.864C156.598 191.198 156.604 191.526 156.48 191.847C156.356 192.168 156.119 192.398 155.768 192.539C155.434 192.673 155.138 192.685 154.881 192.574C154.617 192.448 154.384 192.279 154.184 192.068C153.96 191.848 153.776 191.631 153.632 191.417L153.185 190.81C153.089 190.81 152.941 190.831 152.744 190.871C152.53 190.918 152.298 190.991 152.047 191.092C151.212 191.426 150.606 191.873 150.228 192.431C149.834 192.996 149.597 193.615 149.517 194.287C149.43 194.942 149.429 195.592 149.513 196.237C149.573 196.872 149.647 197.444 149.734 197.952L151.836 210.169L156.573 208.272L156.814 208.873L152.007 211.177L151.029 212.295L150.428 212.536L148.055 198.624C147.968 198.116 147.911 197.489 147.884 196.744C147.84 196.005 147.916 195.228 148.113 194.413C148.31 193.597 148.709 192.826 149.31 192.101C149.905 191.358 150.787 190.753 151.957 190.284Z" fill="#081DC3"/>
<path d="M133.737 201.501C134.957 201.267 136.019 201.55 136.923 202.348C137.813 203.167 138.412 204.381 138.72 205.99C138.94 207.139 138.973 208.315 138.818 209.518C138.663 210.72 138.349 211.852 137.874 212.915C137.382 213.98 136.746 214.872 135.967 215.589C135.173 216.327 134.255 216.796 133.212 216.996C132.222 217.186 131.376 217.073 130.673 216.657C129.956 216.263 129.51 215.606 129.334 214.687C129.165 213.803 129.298 213.017 129.735 212.329C130.153 211.644 130.764 211.05 131.566 210.549C132.35 210.05 133.216 209.646 134.165 209.336C135.099 209.047 135.996 208.848 136.855 208.739L136.894 207.219C136.911 205.493 136.622 204.22 136.025 203.4C135.431 202.597 134.622 202.294 133.596 202.49C132.978 202.608 132.466 202.853 132.06 203.224C131.637 203.598 131.305 204.019 131.065 204.487C130.81 204.975 130.624 205.442 130.508 205.885C130.373 206.333 130.284 206.68 130.24 206.926L130.05 208.09L129.347 208.005L129.497 207.069C129.568 206.578 129.703 206.039 129.902 205.451C130.084 204.867 130.341 204.295 130.674 203.737C130.992 203.199 131.406 202.726 131.914 202.317C132.404 201.912 133.012 201.64 133.737 201.501ZM136.844 209.978L136.86 209.343C135.768 209.478 134.749 209.756 133.803 210.175C132.861 210.612 132.125 211.175 131.597 211.862C131.072 212.567 130.898 213.38 131.074 214.299C131.203 214.971 131.499 215.464 131.962 215.778C132.408 216.096 132.958 216.193 133.612 216.067C134.655 215.868 135.447 215.221 135.989 214.128C136.517 213.055 136.802 211.672 136.844 209.978Z" fill="#081DC3"/>
<path d="M116.925 203.467C118.185 203.467 119.166 203.945 119.868 204.899C120.551 205.871 120.893 207.15 120.892 208.734C120.892 209.94 120.702 211.118 120.324 212.27C119.945 213.44 119.414 214.502 118.729 215.456C118.045 216.409 117.244 217.165 116.326 217.723C115.389 218.298 114.372 218.586 113.274 218.586C112.644 218.585 112.068 218.486 111.546 218.288C111.006 218.108 110.574 217.846 110.251 217.504C109.927 217.18 109.765 216.802 109.765 216.37C109.765 216.01 109.882 215.704 110.116 215.452C110.351 215.2 110.675 215.074 111.089 215.075C111.989 215.075 112.519 215.687 112.681 216.911L112.789 217.667C112.843 217.685 112.933 217.703 113.059 217.721C113.184 217.739 113.328 217.749 113.49 217.749C114.588 217.749 115.579 217.263 116.461 216.292C117.325 215.338 117.938 214.033 118.299 212.378L118.867 209.678C119.209 207.986 119.156 206.681 118.706 205.763C118.257 204.862 117.528 204.412 116.52 204.412C115.872 204.412 115.314 204.555 114.846 204.843C114.359 205.131 113.954 205.482 113.63 205.896C113.288 206.328 113.018 206.75 112.82 207.164C112.622 207.578 112.477 207.902 112.387 208.136L111.982 209.243L111.307 209.027L111.631 208.136C112.19 206.588 112.937 205.418 113.874 204.627C114.792 203.853 115.809 203.467 116.925 203.467Z" fill="#081DC3"/>
<path d="M100.392 202.294C101.523 202.512 102.229 203.033 102.511 203.857C102.789 204.698 102.689 205.696 102.21 206.851L98.3077 216.136L102.02 216.849L101.591 217.647L97.959 216.949L96.9893 219.704L95.0007 219.322L96.156 216.602L90.4024 215.496L90.8307 214.698L96.5047 215.789L100.407 206.504C100.74 205.725 100.832 205.055 100.683 204.495C100.513 203.949 100.075 203.608 99.3678 203.472C98.8021 203.363 98.2712 203.408 97.7749 203.606C97.2752 203.821 96.8078 204.107 96.3727 204.464C95.9166 204.834 95.5008 205.185 95.1256 205.516L94.3944 206.173L93.962 205.705L94.6983 205.021C95.3224 204.445 95.9274 203.92 96.5134 203.446C97.0994 202.972 97.7075 202.621 98.3377 202.394C98.9469 202.182 99.6315 202.148 100.392 202.294Z" fill="#081DC3"/>
<path d="M84.047 197.929C85.2831 198.425 86.1531 199.036 86.6569 199.762C87.1607 200.488 87.2785 201.185 87.0103 201.854C86.8426 202.271 86.6016 202.533 86.2873 202.64C85.9663 202.763 85.6387 202.758 85.3046 202.624C84.9371 202.476 84.6984 202.274 84.5884 202.016C84.4784 201.759 84.4353 201.479 84.4591 201.179C84.4595 200.888 84.4865 200.627 84.5403 200.397L84.7724 199.239C84.6122 199.058 84.2314 198.847 83.63 198.605C82.4607 198.136 81.4882 198.046 80.7123 198.336C79.9131 198.636 79.3693 199.145 79.081 199.863C78.8395 200.465 78.8071 201.053 78.9835 201.628C79.1432 202.196 79.4032 202.757 79.7635 203.309C80.1071 203.854 80.4524 204.419 80.7993 205.005C81.1462 205.59 81.3978 206.195 81.5541 206.82C81.6937 207.439 81.6261 208.091 81.3511 208.776C81.0762 209.46 80.641 210.013 80.0455 210.434C79.45 210.854 78.7344 211.09 77.8987 211.143C77.0563 211.212 76.1256 211.042 75.1066 210.633C74.0042 210.19 73.2377 209.66 72.8073 209.041C72.3769 208.422 72.269 207.845 72.4836 207.311C72.611 206.993 72.8185 206.766 73.1061 206.629C73.3703 206.503 73.6695 206.506 74.0036 206.641C74.4212 206.808 74.6548 207.096 74.7044 207.504C74.7541 207.912 74.7552 208.319 74.7079 208.727L74.6318 209.424C74.6852 209.484 74.7971 209.568 74.9675 209.675C75.1378 209.782 75.3649 209.893 75.6489 210.007C76.6679 210.416 77.5134 210.484 78.1856 210.211C78.8411 209.931 79.2862 209.498 79.5209 208.914C79.7355 208.379 79.7629 207.828 79.6032 207.259C79.4201 206.701 79.1517 206.137 78.7981 205.569C78.4445 205 78.1059 204.418 77.7825 203.823C77.4423 203.22 77.2057 202.602 77.0728 201.967C76.9165 201.341 76.9725 200.695 77.2407 200.026C77.4083 199.609 77.6813 199.195 78.0595 198.784C78.421 198.367 78.8894 198.021 79.4646 197.748C80.0165 197.485 80.6801 197.353 81.4556 197.354C82.2144 197.349 83.0782 197.54 84.047 197.929Z" fill="#081DC3"/>
<path d="M47.6946 187.397L48.0433 189.26L43.466 189.519L43.4109 189.616L46.0755 193.354L44.4153 194.233L42.7699 189.974L42.6359 189.958L39.9136 193.631L38.5466 192.325L42.0891 189.436L42.0669 189.303L37.7366 187.856L38.5571 186.176L42.3954 188.646L42.4895 188.587L42.5362 184.002L44.4138 184.264L43.2557 188.684L43.3338 188.758L47.6946 187.397Z" fill="#081DC3"/>
<path d="M42.7364 158.359L41.9015 158.741L40.7344 156.187L25.0013 159.695L27.9323 161.562L28.0558 161.832L26.7788 162.416L24.186 159.86L19.2053 160.978L18.4534 159.333L22.769 158.578L22.6231 158.259C22.4487 158.18 22.1795 158.046 21.8156 157.856C21.4279 157.657 21.0386 157.39 20.6476 157.054C20.2566 156.718 19.9527 156.313 19.7357 155.838C19.3616 155.019 19.4204 154.26 19.9121 153.56C20.3963 152.844 21.2196 152.221 22.382 151.69C23.1842 151.323 24.0886 151.029 25.0952 150.806C26.0779 150.575 27.0936 150.437 28.1423 150.393C29.1671 150.341 30.1631 150.42 31.1303 150.631C32.0901 150.826 32.9399 151.169 33.6798 151.663C34.4122 152.139 34.9654 152.787 35.3395 153.605C35.4966 153.949 35.606 154.275 35.6677 154.584C35.7294 154.892 35.7717 155.179 35.7946 155.446L39.9713 154.517L38.187 150.612L39.0219 150.231L42.7364 158.359ZM34.4863 153.817C33.6559 152 31.8038 151.412 28.9299 152.052L23.0602 153.369C22.0536 153.591 21.3803 153.958 21.0402 154.47C20.6926 154.965 20.6572 155.516 20.934 156.121C21.1509 156.596 21.5145 157.024 22.0248 157.404C22.5187 157.792 22.9602 158.065 23.3493 158.224L34.7358 155.662C34.7981 155.496 34.8229 155.247 34.8103 154.916C34.7739 154.576 34.6659 154.21 34.4863 153.817Z" fill="#081DC3"/>
<path d="M30.1079 141.632L17.5251 141.977C17.2675 141.983 17.0268 142.06 16.803 142.207C16.5749 142.336 16.5031 142.575 16.5877 142.925C16.668 143.258 16.8906 143.528 17.2557 143.736C17.6208 143.944 18.1144 144.186 18.7365 144.462L19.8199 144.922L19.5864 145.451L18.627 145.044C18.0267 144.781 17.4764 144.534 16.9761 144.303C16.4584 144.077 16.0327 143.809 15.699 143.501C15.3436 143.179 15.1046 142.765 14.982 142.257C14.8087 141.54 14.9483 141.006 15.4008 140.656C15.8533 140.306 16.4961 140.17 17.3294 140.246L21.8836 140.702L21.7885 140.308C19.29 139.93 17.345 139.391 15.9535 138.69C14.562 137.989 13.7226 137.043 13.4352 135.854C13.2747 135.189 13.3162 134.632 13.5599 134.185C13.7819 133.724 14.1291 133.436 14.6015 133.322C15.0039 133.225 15.3964 133.278 15.779 133.482C16.1398 133.673 16.3794 134.013 16.4977 134.503C16.616 134.993 16.5561 135.396 16.3178 135.713C16.0578 136.016 15.6569 136.197 15.1151 136.253L14.4924 136.32C14.6361 136.915 15.1708 137.481 16.0964 138.016C17.0178 138.534 18.2237 138.965 19.714 139.309C21.2044 139.653 22.8857 139.867 24.7579 139.952L29.7529 140.162L30.1079 141.632Z" fill="#081DC3"/>
<path d="M26.7371 121.864C26.7759 122.691 26.5747 123.395 26.1334 123.974C25.6913 124.535 25.081 124.97 24.3025 125.276C23.5232 125.565 22.6571 125.732 21.7042 125.777C20.5175 125.833 19.3313 125.708 18.1457 125.404C16.9593 125.081 15.8748 124.627 14.8923 124.043C13.8909 123.441 13.0827 122.731 12.4676 121.913C11.8526 121.095 11.5231 120.219 11.4791 119.284C11.4403 118.457 11.6419 117.762 12.084 117.201C12.5082 116.64 13.1095 116.207 13.888 115.9C14.6664 115.593 15.5411 115.417 16.512 115.371C17.7167 115.315 18.9213 115.447 20.1257 115.769C21.3113 116.074 22.3958 116.527 23.3792 117.13C24.3625 117.732 25.1617 118.443 25.7768 119.261C26.3731 120.062 26.6931 120.929 26.7371 121.864ZM25.8639 121.689C25.8166 120.682 25.3077 119.823 24.3372 119.112C23.348 118.384 22.0092 117.888 20.321 117.625L17.5974 117.185C15.9083 116.904 14.6048 116.965 13.6867 117.369C12.7498 117.755 12.305 118.452 12.3523 119.459C12.3988 120.448 12.9162 121.297 13.9047 122.008C14.8751 122.719 16.2049 123.215 17.8939 123.496L20.6188 123.963C22.3079 124.244 23.6204 124.182 24.5565 123.778C25.4746 123.374 25.9104 122.678 25.8639 121.689Z" fill="#081DC3"/>
<path d="M10.7289 96.9431C10.6801 97.2816 10.5322 97.5512 10.2851 97.7521C10.0379 97.9529 9.74512 98.029 9.40661 97.9803C8.94339 97.9136 8.56054 97.6675 8.25806 97.2421C7.93778 96.8141 7.81097 96.3685 7.87765 95.9053C7.92894 95.5489 8.07687 95.2792 8.32144 95.0962C8.56857 94.8954 8.8614 94.8193 9.19991 94.8681C9.66314 94.9347 10.0549 95.1821 10.3752 95.6101C10.6777 96.0355 10.7956 96.4798 10.7289 96.9431ZM31.3274 109.237C31.1633 110.377 30.8238 111.283 30.3088 111.955C29.7914 112.644 29.2119 112.943 28.5705 112.85C28.2142 112.799 27.928 112.64 27.7119 112.372C27.4958 112.105 27.4147 111.784 27.4685 111.41C27.5198 111.053 27.6576 110.791 27.8818 110.623C28.1238 110.458 28.3861 110.341 28.6687 110.273C28.9717 110.189 29.2518 110.139 29.5089 110.121L30.2574 110.038C30.3059 109.954 30.362 109.817 30.4259 109.626C30.4923 109.417 30.5447 109.179 30.5832 108.912C30.7114 108.021 30.6282 107.273 30.3336 106.666C30.0415 106.042 29.6245 105.528 29.0828 105.122C28.5588 104.72 27.9966 104.393 27.3961 104.143C26.816 103.878 26.2842 103.656 25.8007 103.477L14.1707 99.1843L13.4436 104.235L12.8022 104.143L13.2126 98.8282L12.733 97.4225L12.8253 96.7811L26.0584 101.687C26.5419 101.865 27.1131 102.129 27.7721 102.479C28.4336 102.81 29.0682 103.265 29.676 103.844C30.2838 104.422 30.7514 105.153 31.0788 106.037C31.4241 106.923 31.5069 107.99 31.3274 109.237Z" fill="#081DC3"/>
<path d="M30.7201 87.8719C30.3126 89.0451 29.5372 89.8238 28.3938 90.2079C27.2394 90.5691 25.8885 90.481 24.3412 89.9436C23.236 89.5597 22.2013 89.0002 21.2371 88.2652C20.2729 87.5301 19.4494 86.6915 18.7667 85.7494C18.09 84.7903 17.6357 83.7941 17.4039 82.7608C17.161 81.7046 17.2137 80.6749 17.5622 79.6717C17.8929 78.7195 18.4137 78.043 19.1246 77.642C19.8245 77.2182 20.6164 77.1598 21.5006 77.4669C22.3508 77.7622 22.9649 78.2708 23.3429 78.9928C23.7269 79.6978 23.9357 80.523 23.9694 81.4684C24.009 82.3968 23.9259 83.3493 23.7201 84.3258C23.5032 85.2794 23.2275 86.1555 22.893 86.9539L24.1894 87.7472C25.6756 88.6254 26.9231 89.0111 27.932 88.9042C28.9239 88.7914 29.5912 88.2419 29.9337 87.2557C30.1404 86.6606 30.1845 86.0948 30.066 85.5582C29.9534 85.0046 29.7547 84.5068 29.47 84.0649C29.1741 83.6001 28.8631 83.2063 28.537 82.8834C28.2168 82.5435 27.9609 82.2927 27.7694 82.1309L26.8565 81.3851L27.2821 80.8183L28.0174 81.4167C28.4064 81.7233 28.8057 82.1097 29.2154 82.576C29.631 83.0252 29.9975 83.5336 30.3148 84.1012C30.6211 84.6458 30.8243 85.2404 30.9243 85.8849C31.0303 86.5124 30.9622 87.1747 30.7201 87.8719ZM21.825 86.3257L22.3673 86.657C22.7956 85.6434 23.0645 84.6221 23.1742 83.5931C23.2669 82.5583 23.1475 81.6403 22.816 80.8392C22.4675 80.0321 21.8511 79.4751 20.967 79.168C20.3208 78.9435 19.7458 78.9534 19.2417 79.1975C18.7436 79.4247 18.3853 79.8528 18.1668 80.482C17.8184 81.4852 17.9822 82.4948 18.6582 83.5109C19.3232 84.504 20.3787 85.4423 21.825 86.3257Z" fill="#081DC3"/>
<path d="M37.4131 72.3592C36.7811 73.4493 35.8763 74.0587 34.6989 74.1874C33.5149 74.2916 32.2378 73.9465 30.8675 73.1519C29.8242 72.547 28.899 71.7921 28.092 70.8873C27.2694 69.9734 26.617 68.9813 26.1348 67.9111C25.6526 66.8408 25.4004 65.7687 25.3781 64.6946C25.3493 63.596 25.6103 62.5717 26.161 61.6218C26.477 61.0768 26.8516 60.6282 27.2847 60.2759C27.7113 59.899 28.1538 59.6562 28.6121 59.5475C29.055 59.4297 29.4632 59.4792 29.8369 59.6958C30.1484 59.8764 30.3544 60.1311 30.4551 60.46C30.5557 60.7888 30.5022 61.1323 30.2945 61.4904C29.8431 62.269 29.0473 62.4214 27.9071 61.9476L27.199 61.6619C27.1563 61.6995 27.0956 61.7684 27.0168 61.8683C26.938 61.9683 26.858 62.0884 26.7768 62.2285C26.226 63.1784 26.1499 64.2786 26.5483 65.5292C26.9403 66.7552 27.7623 67.9392 29.0143 69.0813L31.0657 70.9261C32.3579 72.0707 33.5139 72.6785 34.5338 72.7497C35.5381 72.8118 36.2931 72.4069 36.7987 71.5349C37.1237 70.9743 37.279 70.4193 37.2646 69.87C37.2593 69.3051 37.1588 68.7787 36.9631 68.2907C36.7609 67.7782 36.5304 67.3324 36.2716 66.9535C36.0128 66.5745 35.8047 66.2874 35.6474 66.0922L34.8929 65.1865L35.4183 64.7109L36.0266 65.4382C37.0859 66.6974 37.7234 67.9305 37.939 69.1374C38.1482 70.3198 37.9728 71.3938 37.4131 72.3592Z" fill="#081DC3"/>
<path d="M46.7043 58.6719C45.9489 59.5416 45.1442 59.8917 44.2901 59.7221C43.4225 59.5407 42.6093 58.9535 41.8504 57.9606L35.7734 49.9286L33.2947 52.7824L32.8194 52.012L35.245 49.2194L33.3472 46.9987L34.6751 45.4699L36.449 47.8332L40.291 43.4098L40.7663 44.1802L36.9774 48.5425L43.0544 56.5745C43.5615 57.2533 44.0947 57.6688 44.654 57.8208C45.2116 57.9475 45.7264 57.739 46.1986 57.1955C46.5763 56.7606 46.804 56.2789 46.8816 55.7503C46.9457 55.2099 46.9327 54.6621 46.8426 54.107C46.7507 53.5266 46.6556 52.991 46.5573 52.5003L46.3557 51.5384L46.9775 51.3989L47.1995 52.3786C47.3854 53.2076 47.5364 53.9944 47.6526 54.7391C47.7688 55.4837 47.7671 56.1856 47.6476 56.8447C47.5263 57.4785 47.2119 58.0875 46.7043 58.6719Z" fill="#081DC3"/>
<path d="M58.6461 46.7258C57.5991 47.5493 56.6354 47.9981 55.7548 48.0723C54.8743 48.1465 54.2115 47.9007 53.7664 47.3347C53.4882 46.981 53.3814 46.6414 53.4459 46.3158C53.4994 45.9761 53.6675 45.695 53.9505 45.4724C54.2618 45.2276 54.5564 45.1218 54.8345 45.155C55.1125 45.1883 55.3759 45.2903 55.6247 45.461C55.8765 45.6065 56.0889 45.76 56.2618 45.9217L57.1493 46.7007C57.3859 46.6521 57.7588 46.4275 58.2682 46.0269C59.2586 45.248 59.8218 44.45 59.9579 43.6331C60.097 42.7909 59.9273 42.0656 59.4488 41.4572C59.0483 40.9479 58.5547 40.6261 57.9683 40.4919C57.396 40.3466 56.7808 40.2923 56.1227 40.329C55.4787 40.3546 54.8165 40.3716 54.1361 40.38C53.4557 40.3884 52.8056 40.3043 52.1858 40.1277C51.5802 39.9399 51.0492 39.556 50.593 38.9759C50.1368 38.3958 49.8751 37.7429 49.808 37.017C49.741 36.2912 49.8933 35.5531 50.265 34.8028C50.6255 34.0383 51.2373 33.3167 52.1004 32.6379C53.0342 31.9035 53.8766 31.5042 54.6278 31.4402C55.3789 31.3761 55.9325 31.5705 56.2886 32.0232C56.5 32.2921 56.5932 32.5852 56.568 32.9027C56.5459 33.1948 56.3934 33.4522 56.1104 33.6748C55.7567 33.9529 55.3908 34.0118 55.0126 33.8512C54.6344 33.6906 54.2805 33.4881 53.9508 33.2436L53.3849 32.8299C53.3061 32.8461 53.1777 32.9012 52.9998 32.9953C52.8219 33.0894 52.6127 33.2311 52.3722 33.4202C51.5091 34.099 51.0283 34.7978 50.9295 35.5167C50.8449 36.2244 50.9974 36.8259 51.3868 37.3211C51.7429 37.7738 52.2071 38.0729 52.7794 38.2182C53.3547 38.3382 53.977 38.3869 54.6462 38.3644C55.3155 38.3418 55.9888 38.339 56.6662 38.3558C57.3577 38.3616 58.0118 38.4654 58.6286 38.6673C59.2484 38.8439 59.7809 39.2152 60.226 39.7811C60.5042 40.1349 60.7268 40.5781 60.8939 41.1108C61.0751 41.6323 61.1406 42.2106 61.0903 42.8455C61.0431 43.4552 60.8255 44.0957 60.4376 44.7672C60.0639 45.4275 59.4667 46.0804 58.6461 46.7258Z" fill="#081DC3"/>
<path d="M85.9015 20.4772L84.1134 19.8475L86.1778 15.754L86.1215 15.658L81.5515 16.0965L81.6206 14.2194L86.1315 14.9236L86.2123 14.8155L84.393 10.6218L86.2067 10.0905L86.9379 14.6029L87.0643 14.6503L90.4821 11.6233L91.5272 13.174L87.4689 15.2633L87.4734 15.3745L91.4203 17.7069L90.2546 19.202L87.0065 15.9896L86.9028 16.0199L85.9015 20.4772Z" fill="#081DC3"/>
</svg>
