<svg width="192" height="303" viewBox="0 0 192 303" fill="none" xmlns="http://www.w3.org/2000/svg">
<path d="M94.8204 61.3192L106.454 135.315L186.224 146.107L106.454 156.899L94.8204 302.4L83.1866 156.899L3.41699 146.107L83.1866 135.315L94.8204 61.3192Z" fill="#081DC3"/>
<path d="M52.7521 102.558L95.7627 133.882L141.25 99.2355L106.604 144.723L137.927 187.734L94.9168 156.41L49.4292 191.057L84.0757 145.569L52.7521 102.558Z" fill="#081DC3"/>
<path d="M94.8 0C94.8 0 96.8008 17.4793 101.8 21.1597C106.8 24.84 124.8 27.6 124.8 27.6C124.8 27.6 108.439 27.9326 101.8 34.0403C95.1616 40.1481 94.8 55.2 94.8 55.2C94.8 55.2 94.4385 40.1481 87.7997 34.0403C81.1608 27.9326 64.8 27.6 64.8 27.6C64.8 27.6 81.1608 27.2674 87.7997 21.1597C94.4385 15.0519 94.8 0 94.8 0Z" fill="#081DC3"/>
<path d="M190.5 184.8C190.5 187.657 188.377 190.737 183.638 193.819C178.964 196.858 172.1 199.652 163.485 202.021C146.275 206.754 122.415 209.7 96 209.7C69.5851 209.7 45.7252 206.754 28.5155 202.021C19.9 199.652 13.0364 196.858 8.36179 193.819C3.6228 190.737 1.5 187.657 1.5 184.8C1.5 181.943 3.6228 178.863 8.36179 175.782C13.0364 172.742 19.9 169.948 28.5155 167.579C45.7252 162.846 69.5851 159.9 96 159.9C122.415 159.9 146.275 162.846 163.485 167.579C172.1 169.948 178.964 172.742 183.638 175.782C188.377 178.863 190.5 181.943 190.5 184.8Z" stroke="#081DC3" stroke-width="3"/>
<path d="M190.5 200.4C190.5 203.057 188.423 205.982 183.665 208.934C178.988 211.837 172.121 214.506 163.501 216.768C146.285 221.287 122.419 224.1 96 224.1C69.5805 224.1 45.7146 221.287 28.4986 216.768C19.8795 214.506 13.0121 211.837 8.33514 208.934C3.57734 205.982 1.5 203.057 1.5 200.4C1.5 197.743 3.57734 194.818 8.33514 191.866C13.0121 188.963 19.8795 186.294 28.4986 184.032C45.7146 179.513 69.5805 176.7 96 176.7C122.419 176.7 146.285 179.513 163.501 184.032C172.121 186.294 178.988 188.963 183.665 191.866C188.423 194.818 190.5 197.743 190.5 200.4Z" stroke="#081DC3" stroke-width="3"/>
<path d="M190.5 234C190.5 236.657 188.423 239.582 183.665 242.534C178.988 245.437 172.121 248.106 163.501 250.368C146.285 254.887 122.419 257.7 96 257.7C69.5805 257.7 45.7146 254.887 28.4986 250.368C19.8795 248.106 13.0121 245.437 8.33514 242.534C3.57734 239.582 1.5 236.657 1.5 234C1.5 231.343 3.57734 228.418 8.33514 225.466C13.0121 222.563 19.8795 219.894 28.4986 217.632C45.7146 213.113 69.5805 210.3 96 210.3C122.419 210.3 146.285 213.113 163.501 217.632C172.121 219.894 178.988 222.563 183.665 225.466C188.423 228.418 190.5 231.343 190.5 234Z" stroke="#081DC3" stroke-width="3"/>
<path d="M190.5 217.2C190.5 219.857 188.423 222.782 183.665 225.734C178.988 228.637 172.121 231.306 163.501 233.568C146.285 238.087 122.419 240.9 96 240.9C69.5805 240.9 45.7146 238.087 28.4986 233.568C19.8795 231.306 13.0121 228.637 8.33514 225.734C3.57734 222.782 1.5 219.857 1.5 217.2C1.5 214.543 3.57734 211.618 8.33514 208.666C13.0121 205.763 19.8795 203.094 28.4986 200.832C45.7146 196.313 69.5805 193.5 96 193.5C122.419 193.5 146.285 196.313 163.501 200.832C172.121 203.094 178.988 205.763 183.665 208.666C188.423 211.618 190.5 214.543 190.5 217.2Z" stroke="#081DC3" stroke-width="3"/>
</svg>
