<svg width="63" height="70" viewBox="0 0 63 70" fill="none" xmlns="http://www.w3.org/2000/svg">
<path d="M62.4357 18.6919C62.4357 20.1799 61.5477 22.5799 59.7717 25.8919C58.8117 27.8119 57.8758 29.7319 56.9638 31.6519C56.0038 33.1879 54.7078 33.9559 53.0758 33.9559C52.1158 33.9559 50.6278 33.6679 48.6118 33.0919C46.5958 32.4679 45.0838 32.1559 44.0758 32.1559C41.3398 32.1559 39.9718 33.7159 39.9718 36.8359C39.9718 38.9479 41.3398 40.0039 44.0758 40.0039C45.5158 40.0039 47.0038 39.8599 48.5398 39.5719C50.1238 39.2839 51.0358 39.1399 51.2758 39.1399C53.1958 39.1399 55.3078 41.3479 57.6118 45.7639C57.8998 46.2919 58.9078 47.9479 60.6358 50.7319C61.5957 52.3639 62.0757 53.5639 62.0757 54.3319C62.0757 55.5799 61.3797 56.2039 59.9878 56.2039H50.6278C48.4678 56.2039 46.5718 55.1479 44.9398 53.0359C44.5558 52.5079 42.8758 49.7719 39.8998 44.8279C39.1318 43.5319 38.3398 42.8839 37.5238 42.8839C37.1878 42.8839 36.7078 43.1479 36.0838 43.6759C34.5958 44.9239 33.8038 45.5719 33.7078 45.6199C34.1398 47.3479 35.5078 49.8919 37.8118 53.2519C39.8278 56.1799 40.8358 58.6039 40.8358 60.5239V60.7399C38.5318 62.4199 36.5878 64.5079 35.0038 67.0039C33.7558 68.9239 32.8918 69.8839 32.4118 69.8839C31.1158 69.8839 28.7638 67.5799 25.3558 62.9719C23.7238 60.7639 22.9078 59.2039 22.9078 58.2919C22.9078 58.0519 23.4358 56.8759 24.4918 54.7639C25.9798 51.8359 27.2758 49.0519 28.3798 46.4119C28.2358 45.5959 27.7318 44.8759 26.8678 44.2519C26.0518 43.6279 25.3078 43.3159 24.6358 43.3159C23.6278 43.3159 22.6918 43.9879 21.8278 45.3319C21.3478 46.0519 20.5078 47.6839 19.3078 50.2279C18.3958 52.1479 17.5078 53.4919 16.6438 54.2599C15.9718 54.8839 15.0358 55.2919 13.8358 55.4839C12.4438 55.5799 11.0758 55.6999 9.73183 55.8439C7.18784 56.1319 4.97984 56.2759 3.10784 56.2759C1.85985 56.2759 1.23585 55.8439 1.23585 54.9799C1.23585 51.3799 2.45984 47.5399 4.90784 43.4599C6.97184 40.0519 9.10783 38.3479 11.3158 38.3479C11.6518 38.3479 12.4198 38.4919 13.6198 38.7799C14.8198 39.0199 15.8518 39.1399 16.7158 39.1399C20.0278 39.1399 21.6838 38.2999 21.6838 36.6199C21.6838 35.3719 21.2038 34.2439 20.2438 33.2359C19.2838 32.2279 18.2998 31.7239 17.2918 31.7239C17.1478 31.7239 16.3078 32.0119 14.7718 32.5879C13.2358 33.1159 11.5798 33.3799 9.80383 33.3799C8.50783 33.3799 7.52384 33.0199 6.85184 32.2999C6.41984 31.9159 5.69984 30.8359 4.69184 29.0599C1.85985 24.1159 0.443848 20.9239 0.443848 19.4839C0.443848 18.4279 0.899847 17.8759 1.81185 17.8279C2.72384 17.7319 4.11584 17.6119 5.98784 17.4679C7.04384 17.3719 8.41183 17.1319 10.0918 16.7479C11.5318 16.4119 12.4918 16.2439 12.9718 16.2439C14.5558 16.2439 15.8998 17.1319 17.0038 18.9079C17.3398 19.4359 18.4678 21.8359 20.3878 26.1079C20.8198 27.0679 21.4678 27.9799 22.3318 28.8439C23.0038 29.5639 23.4598 29.9239 23.6998 29.9239C24.1798 29.9239 24.8998 29.3959 25.8598 28.3399C28.0678 25.8919 29.1718 24.3079 29.1718 23.5879C29.1718 22.6759 27.9958 21.0439 25.6438 18.6919C23.2918 16.3399 22.1158 14.4919 22.1158 13.1479C22.1158 11.2759 22.7158 9.61993 23.9158 8.17993C28.0438 3.28394 30.4198 0.835938 31.0438 0.835938C31.6198 0.835938 32.6998 1.86794 34.2838 3.93194C36.8758 7.29194 38.6518 10.0039 39.6118 12.0679C39.6118 12.9319 37.2358 17.3959 32.4838 25.4599C34.9318 27.6679 36.5878 28.7719 37.4518 28.7719C38.1238 28.7719 38.7478 28.4119 39.3238 27.6919C39.6598 27.2599 40.2598 26.1799 41.1238 24.4519C43.1398 20.4199 44.3638 18.0919 44.7958 17.4679C45.8518 15.8359 47.0278 15.0199 48.3238 15.0199C48.6598 15.0199 50.1478 15.2119 52.7878 15.5959C55.0438 15.8359 57.4198 16.0999 59.9157 16.3879C60.8757 16.5319 61.5237 16.7479 61.8597 17.0359C62.2437 17.2759 62.4357 17.8279 62.4357 18.6919Z" fill="#001ECB"/>
</svg>
